<svg width="728" height="54" viewBox="0 0 728 54" fill="none" xmlns="http://www.w3.org/2000/svg">
<g clip-path="url(#clip0_5_58)">
<path d="M28.9107 19.7667H31.6799V33.2533H28.9107V19.7667Z" fill="#737680"/>
<path d="M33.2308 28.6334C33.2308 27.6631 33.5157 26.7145 34.0495 25.9081C34.5832 25.1017 35.3417 24.4738 36.2289 24.1037C37.116 23.7336 38.0918 23.6382 39.0326 23.8297C39.9734 24.021 40.8369 24.4905 41.5135 25.1785C42.1901 25.8666 42.6495 26.7423 42.8333 27.6947C43.0172 28.647 42.9173 29.6331 42.5462 30.5279C42.1751 31.4228 41.5497 32.1862 40.7492 32.7212C39.9486 33.2563 39.0089 33.5389 38.0493 33.5334C37.4128 33.5384 36.7817 33.4148 36.193 33.17C35.6043 32.9252 35.0699 32.564 34.6211 32.1076C34.1723 31.6513 33.8182 31.1088 33.5794 30.5122C33.3407 29.9157 33.2221 29.2769 33.2308 28.6334ZM40.1723 28.6334C40.1614 28.215 40.0288 27.8092 39.791 27.4667C39.5532 27.1242 39.2208 26.8602 38.8354 26.7077C38.4501 26.5552 38.0288 26.5209 37.6242 26.6092C37.2197 26.6976 36.8499 26.9045 36.5611 27.2042C36.2722 27.504 36.0772 27.8831 36.0004 28.2944C35.9236 28.7055 35.9684 29.1305 36.1292 29.5161C36.29 29.9017 36.5596 30.2308 36.9044 30.4622C37.2492 30.6937 37.6538 30.8172 38.0677 30.8174C38.3494 30.8229 38.6294 30.7696 38.8899 30.6608C39.1504 30.5521 39.3859 30.3902 39.5817 30.1851C39.7774 29.9802 39.9293 29.7366 40.0278 29.4695C40.1262 29.2026 40.1691 28.9178 40.1539 28.6334H40.1723Z" fill="#737680"/>
<path d="M53.8246 24.0133V32.796C53.8246 35.8947 51.4246 37.2107 48.9969 37.2107C48.1407 37.2817 47.2817 37.1097 46.5169 36.7139C45.752 36.3182 45.1116 35.7144 44.6677 34.9707L47.0031 33.608C47.1924 33.9937 47.4934 34.3121 47.8661 34.5205C48.2388 34.7289 48.6654 34.8176 49.0892 34.7747C49.3592 34.8083 49.6332 34.7812 49.8917 34.6952C50.15 34.6094 50.3864 34.4668 50.5841 34.2778C50.7816 34.0887 50.9354 33.8578 51.0344 33.6016C51.1335 33.3455 51.1753 33.0704 51.1569 32.796V31.9467C50.8347 32.3417 50.4258 32.6553 49.9627 32.8627C49.4996 33.0701 48.9952 33.1655 48.4892 33.1413C47.2651 33.1413 46.0913 32.6496 45.2257 31.7745C44.3601 30.8993 43.8738 29.7124 43.8738 28.4747C43.8738 27.237 44.3601 26.05 45.2257 25.1749C46.0913 24.2997 47.2651 23.808 48.4892 23.808C48.9952 23.7838 49.4996 23.8792 49.9627 24.0866C50.4258 24.2939 50.8347 24.6076 51.1569 25.0027V24.0693L53.8246 24.0133ZM51.1569 28.4467C51.1754 28.0002 51.0613 27.5582 50.8293 27.1778C50.5974 26.7974 50.2581 26.4958 49.8553 26.3118C49.4525 26.1279 49.0044 26.07 48.5687 26.1456C48.1331 26.2212 47.7298 26.4268 47.4106 26.736C47.0915 27.0453 46.8712 27.444 46.7779 27.8809C46.6847 28.3177 46.7228 28.7728 46.8875 29.1875C47.0521 29.6023 47.3357 29.9578 47.7017 30.2083C48.0677 30.4588 48.4996 30.593 48.9415 30.5933C49.23 30.6143 49.5196 30.5739 49.7916 30.4748C50.0636 30.3756 50.312 30.2198 50.5208 30.0175C50.7295 29.8152 50.894 29.5709 51.0036 29.3003C51.1133 29.0297 51.1654 28.7389 51.1569 28.4467Z" fill="#737680"/>
<path d="M55.3846 28.6334C55.3846 27.6638 55.669 26.7161 56.202 25.9101C56.7349 25.104 57.4923 24.476 58.3783 24.1055C59.2644 23.7348 60.2392 23.6383 61.1796 23.8282C62.1199 24.018 62.9834 24.4856 63.6607 25.1718C64.3382 25.8581 64.799 26.7321 64.9849 27.6831C65.1709 28.6343 65.0736 29.6198 64.7054 30.515C64.3372 31.4102 63.7145 32.1748 62.9164 32.7121C62.1183 33.2493 61.1804 33.5352 60.2215 33.5334C59.5838 33.5396 58.9513 33.4171 58.3611 33.1729C57.7708 32.9287 57.2347 32.5679 56.7842 32.1115C56.3337 31.6551 55.9779 31.1124 55.7375 30.5151C55.4972 29.9179 55.3772 29.2781 55.3846 28.6334ZM62.3261 28.6334C62.3152 28.2147 62.1823 27.8085 61.9442 27.4658C61.7059 27.1231 61.3731 26.8591 60.9871 26.7069C60.6012 26.5546 60.1794 26.5209 59.7747 26.6101C59.3698 26.6991 59.0001 26.9071 58.7116 27.2077C58.4232 27.5083 58.2289 27.8884 58.1531 28.3002C58.0774 28.7119 58.1235 29.1372 58.2856 29.5225C58.4478 29.908 58.7189 30.2364 59.0649 30.4668C59.411 30.697 59.8165 30.819 60.2308 30.8174C60.5125 30.8229 60.7924 30.7697 61.0529 30.6608C61.3134 30.5521 61.5489 30.3902 61.7447 30.1852C61.9405 29.9802 62.0923 29.7366 62.1908 29.4696C62.2892 29.2026 62.3321 28.9179 62.3169 28.6334H62.3261Z" fill="#737680"/>
<path d="M66.3416 21.54C66.3416 21.2114 66.4379 20.8902 66.6185 20.617C66.799 20.3438 67.0556 20.1309 67.3558 20.0051C67.6561 19.8794 67.9865 19.8465 68.3052 19.9106C68.6239 19.9747 68.9167 20.1329 69.1464 20.3653C69.3763 20.5976 69.5327 20.8936 69.5961 21.2159C69.6595 21.5381 69.627 21.8722 69.5026 22.1758C69.3783 22.4793 69.1676 22.7388 68.8975 22.9213C68.6273 23.1039 68.3096 23.2013 67.9846 23.2013C67.5503 23.1965 67.1352 23.0199 66.8281 22.7094C66.521 22.3989 66.3464 21.9791 66.3416 21.54ZM66.6092 24.0133H69.3785V33.2533H66.6092V24.0133Z" fill="#737680"/>
<path d="M81.2308 28.6333C81.2618 29.2478 81.1723 29.8624 80.9675 30.4418C80.7627 31.0212 80.4466 31.554 80.0373 32.0095C79.6281 32.4648 79.1339 32.834 78.583 33.0955C78.0322 33.357 77.4356 33.5058 76.8277 33.5333C76.3118 33.568 75.7948 33.4844 75.3153 33.2889C74.8358 33.0933 74.4062 32.7908 74.0585 32.404V36.968H71.2892V24.0133H74.0585V24.8813C74.4067 24.4956 74.8366 24.1944 75.3162 24.0004C75.7957 23.8065 76.3124 23.7247 76.8277 23.7613C77.4332 23.7888 78.0273 23.9368 78.5764 24.1965C79.1253 24.4563 79.6183 24.8228 80.0272 25.2753C80.436 25.7277 80.7528 26.257 80.9593 26.8332C81.1658 27.4094 81.258 28.021 81.2308 28.6333ZM78.4616 28.6333C78.4507 28.1998 78.3134 27.7792 78.0671 27.4243C77.8208 27.0692 77.4764 26.7957 77.0769 26.6378C76.6775 26.4799 76.2408 26.4447 75.8217 26.5368C75.4027 26.6287 75.0197 26.8437 74.721 27.1548C74.4222 27.4659 74.2208 27.8592 74.1422 28.2855C74.0636 28.7118 74.1112 29.1521 74.279 29.5511C74.4467 29.9502 74.7273 30.2903 75.0855 30.5288C75.4436 30.7673 75.8635 30.8937 76.2923 30.892C76.586 30.9046 76.8791 30.8543 77.1523 30.7443C77.4254 30.6344 77.6725 30.4672 77.8773 30.254C78.0822 30.0407 78.2401 29.7861 78.3408 29.5068C78.4414 29.2275 78.4826 28.9298 78.4616 28.6333Z" fill="#737680"/>
<path d="M89.6585 30.4813C89.6585 32.6093 87.8123 33.5147 85.8554 33.5147C85.0572 33.5873 84.2559 33.4162 83.5549 33.0235C82.8539 32.6309 82.2855 32.0347 81.9231 31.312L84.3046 29.9493C84.399 30.2823 84.6035 30.5725 84.8841 30.7713C85.1648 30.9701 85.5044 31.0654 85.8462 31.0413C86.5016 31.0413 86.8339 30.836 86.8339 30.4627C86.8339 29.4453 82.3385 29.9867 82.3385 26.7853C82.3385 24.7693 84.0185 23.7613 85.92 23.7613C86.6428 23.7286 87.3609 23.8944 87.998 24.2412C88.6351 24.5879 89.1674 25.1026 89.5385 25.7307L87.1569 27C87.0517 26.7592 86.8798 26.5543 86.662 26.4103C86.444 26.2662 86.1896 26.1889 85.9292 26.188C85.4492 26.188 85.1631 26.3747 85.1631 26.7013C85.1631 27.7653 89.6585 27.0653 89.6585 30.4813Z" fill="#737680"/>
<path d="M99.6923 24.0133V33.2533H96.9231V32.3853C96.6083 32.7695 96.2086 33.0735 95.7572 33.273C95.3049 33.4724 94.8129 33.5616 94.32 33.5333C92.4738 33.5333 90.8954 32.1986 90.8954 29.7066V24.0133H93.6646V29.2866C93.6425 29.5071 93.6683 29.7297 93.7403 29.9391C93.8123 30.1485 93.9277 30.3396 94.0791 30.4994C94.2314 30.6591 94.416 30.7836 94.62 30.8643C94.824 30.945 95.0428 30.9799 95.2615 30.9666C96.2585 30.9666 96.96 30.3693 96.96 29.1V24.0133H99.6923Z" fill="#737680"/>
<path d="M115.385 27.5787V33.2533H112.615V27.8213C112.615 26.888 112.182 26.3093 111.305 26.3093C110.428 26.3093 109.874 26.9533 109.874 28.0453V33.2533H107.105V27.8213C107.105 26.888 106.671 26.3093 105.794 26.3093C104.917 26.3093 104.363 26.9533 104.363 28.0453V33.2533H101.594V24.0133H104.363V24.8627C104.65 24.4875 105.024 24.1903 105.453 23.998C105.882 23.8058 106.351 23.7244 106.818 23.7613C107.286 23.7367 107.754 23.8355 108.173 24.0482C108.592 24.2609 108.949 24.5802 109.209 24.9747C109.514 24.5626 109.916 24.2351 110.38 24.0229C110.842 23.8107 111.352 23.7207 111.858 23.7613C114.018 23.7613 115.385 25.2733 115.385 27.5787Z" fill="#737680"/>
<path d="M12.4155 17.34V13.3734H0.0462036V40.6267H12.4155V36.66C9.88164 36.66 7.45154 35.6423 5.65984 33.8307C3.86815 32.0191 2.86159 29.562 2.86159 27C2.86159 24.438 3.86815 21.981 5.65984 20.1694C7.45154 18.3578 9.88164 17.34 12.4155 17.34Z" fill="#737680"/>
<path d="M12.4154 17.34V36.66C14.9492 36.66 17.3793 35.6423 19.1709 33.8307C20.9626 32.0191 21.9692 29.562 21.9692 27C21.9692 24.438 20.9626 21.981 19.1709 20.1694C17.3793 18.3578 14.9492 17.34 12.4154 17.34Z" fill="#737680"/>
<path d="M117.711 23.9573C118.832 23.9573 119.742 23.0381 119.742 21.904C119.742 20.77 118.832 19.8507 117.711 19.8507C116.589 19.8507 115.68 20.77 115.68 21.904C115.68 23.0381 116.589 23.9573 117.711 23.9573Z" fill="#737680"/>
</g>
<g clip-path="url(#clip1_5_58)">
<path d="M186.228 21.6427H189.238V33.776H186.228V21.6427ZM190.438 29.212C190.438 26.2067 192.313 24.4053 195.125 24.4053C197.938 24.4053 199.813 26.2067 199.813 29.212C199.813 32.2173 198.003 34.0373 195.125 34.0373C192.247 34.0373 190.438 32.2827 190.438 29.212ZM196.831 29.212C196.831 27.56 196.184 26.5893 195.153 26.5893C194.122 26.5893 193.484 27.5227 193.484 29.212C193.484 30.9013 194.122 31.8253 195.153 31.8253C196.184 31.8253 196.85 30.9013 196.85 29.2213L196.831 29.212ZM201.013 34.4013H203.919C204.051 34.7128 204.282 34.9727 204.577 35.1412C204.871 35.3098 205.213 35.3777 205.55 35.3347C206.703 35.3347 207.303 34.7187 207.303 33.804V32.124H207.313C207.064 32.6471 206.663 33.0831 206.161 33.3747C205.659 33.6663 205.08 33.7996 204.5 33.7573C202.297 33.7573 200.834 32.0867 200.834 29.212C200.834 26.3373 202.231 24.5453 204.584 24.5453C205.179 24.5137 205.769 24.6663 206.272 24.9822C206.776 25.2982 207.169 25.7619 207.397 26.3093H207.313V24.62H210.294V33.7107C210.294 35.904 208.344 37.276 205.475 37.276C202.869 37.2667 201.2 36.0813 201.031 34.4107L201.013 34.4013ZM207.313 29.212C207.313 27.7467 206.638 26.8227 205.569 26.8227C204.5 26.8227 203.844 27.756 203.844 29.212C203.844 30.668 204.491 31.5267 205.569 31.5267C206.647 31.5267 207.313 30.7333 207.313 29.212ZM211.484 29.212C211.484 26.2067 213.359 24.4053 216.172 24.4053C218.984 24.4053 220.859 26.2067 220.859 29.212C220.859 32.2173 219.041 34.0373 216.172 34.0373C213.303 34.0373 211.503 32.2827 211.503 29.212H211.484ZM217.878 29.212C217.878 27.56 217.222 26.5893 216.2 26.5893C215.178 26.5893 214.531 27.5227 214.531 29.212C214.531 30.9013 215.169 31.8253 216.2 31.8253C217.231 31.8253 217.897 30.9013 217.897 29.2213L217.878 29.212ZM222.078 22.408C222.065 22.1028 222.144 21.8007 222.305 21.5406C222.466 21.2804 222.701 21.0741 222.98 20.9482C223.26 20.8222 223.571 20.7824 223.873 20.8339C224.176 20.8854 224.456 21.0258 224.677 21.237C224.899 21.4482 225.052 21.7207 225.117 22.0192C225.182 22.3178 225.155 22.6288 225.041 22.9123C224.927 23.1958 224.73 23.4389 224.476 23.6101C224.222 23.7814 223.922 23.8731 223.616 23.8733C223.42 23.8783 223.224 23.8444 223.042 23.7738C222.859 23.703 222.692 23.5968 222.551 23.4614C222.409 23.3259 222.296 23.1639 222.219 22.9846C222.141 22.8054 222.099 22.6126 222.097 22.4173L222.078 22.408ZM222.078 24.6107H225.125V33.8133H222.125L222.078 24.6107ZM236.084 29.212C236.084 32.208 234.734 33.944 232.438 33.944C231.85 33.9801 231.265 33.8357 230.762 33.5303C230.259 33.2248 229.862 32.7731 229.625 32.236H229.569V36.772H226.559V24.6387H229.55V26.2813H229.606C229.835 25.7338 230.228 25.2696 230.731 24.9523C231.234 24.6349 231.824 24.4798 232.419 24.508C234.781 24.4893 236.141 26.216 236.141 29.2213L236.084 29.212ZM233.019 29.212C233.019 27.756 232.334 26.8133 231.275 26.8133C230.216 26.8133 229.55 27.7467 229.541 29.212C229.531 30.6773 230.216 31.6013 231.275 31.6013C232.334 31.6013 233.075 30.7333 233.075 29.2213L233.019 29.212ZM241.222 24.396C243.744 24.396 245.309 25.5813 245.328 27.4853H242.581C242.581 26.8227 242.028 26.412 241.203 26.412C240.378 26.412 239.984 26.7293 239.984 27.2053C239.984 27.6813 240.331 27.8307 241.025 27.9707L242.956 28.3627C244.831 28.7547 245.581 29.5013 245.581 30.892C245.581 32.7587 243.847 34.028 241.269 34.028C238.691 34.028 237.013 32.796 236.891 30.92H239.806C239.891 31.6013 240.434 32.0027 241.316 32.0027C242.197 32.0027 242.609 31.7227 242.609 31.228C242.609 30.7333 242.328 30.6493 241.606 30.5L239.863 30.136C238.053 29.7533 237.106 28.8107 237.106 27.4013C237.163 25.572 238.738 24.4053 241.278 24.4053L241.222 24.396ZM255.659 33.804H252.744V32.0773H252.688C252.524 32.6533 252.169 33.1567 251.68 33.5044C251.19 33.8523 250.597 34.0237 249.997 33.9907C249.544 34.0053 249.092 33.9245 248.673 33.7533C248.254 33.5823 247.875 33.3247 247.563 32.9978C247.25 32.6708 247.011 32.2817 246.86 31.8561C246.709 31.4305 246.65 30.9778 246.688 30.528V24.62H249.697V29.884C249.697 30.9667 250.269 31.5547 251.206 31.5547C251.427 31.553 251.643 31.5044 251.843 31.4122C252.043 31.3199 252.22 31.186 252.362 31.0197C252.506 30.8534 252.612 30.6584 252.673 30.448C252.733 30.2376 252.748 30.0166 252.716 29.8V24.62H255.716L255.659 33.804ZM257.113 24.6107H260.038V26.384H260.103C260.264 25.8159 260.611 25.3172 261.088 24.9659C261.565 24.6147 262.145 24.4306 262.738 24.4427C263.333 24.3912 263.926 24.5625 264.401 24.9233C264.876 25.284 265.198 25.8082 265.306 26.3933H265.438C265.625 25.8051 266.002 25.2949 266.511 24.9422C267.019 24.5894 267.631 24.4138 268.25 24.4427C268.662 24.4271 269.072 24.4982 269.454 24.6514C269.836 24.8044 270.181 25.0362 270.467 25.3314C270.753 25.6265 270.973 25.9785 271.112 26.3641C271.253 26.7498 271.309 27.1605 271.278 27.5693V33.8133H268.25V28.3347C268.25 27.4013 267.809 26.8787 266.956 26.8787C266.767 26.8756 266.579 26.9133 266.406 26.9891C266.233 27.065 266.079 27.1773 265.953 27.3182C265.828 27.4592 265.734 27.6254 265.678 27.8058C265.624 27.9861 265.609 28.176 265.634 28.3627V33.8133H262.766V28.3067C262.766 27.3733 262.306 26.8787 261.481 26.8787C261.29 26.8772 261.101 26.9164 260.926 26.9937C260.751 27.071 260.595 27.1846 260.468 27.327C260.341 27.4693 260.247 27.637 260.19 27.8188C260.133 28.0007 260.116 28.1925 260.141 28.3813V33.8133H257.131L257.113 24.6107Z" fill="#737680"/>
<path d="M180.275 22.436C180.275 20.5783 179.712 18.764 178.658 17.2306C177.605 15.6972 176.111 14.5162 174.373 13.8423C172.634 13.1684 170.731 13.0331 168.914 13.454C167.096 13.875 165.449 14.8325 164.188 16.2013H152.488V40.7853H177.191V29.296C178.16 28.4326 178.936 27.3754 179.468 26.1934C179.999 25.0113 180.274 23.731 180.275 22.436ZM175.522 22.436C175.524 23.3261 175.26 24.1968 174.765 24.9378C174.269 25.6788 173.564 26.2569 172.739 26.5988C171.913 26.9407 171.005 27.0312 170.127 26.8587C169.25 26.6861 168.444 26.2584 167.811 25.6297C167.178 25.0009 166.747 24.1993 166.572 23.3264C166.397 22.4534 166.486 21.5485 166.828 20.7259C167.169 19.9033 167.748 19.2002 168.492 18.7054C169.235 18.2107 170.109 17.9466 171.003 17.9466C172.2 17.9466 173.348 18.4193 174.195 19.2609C175.042 20.1026 175.519 21.2444 175.522 22.436ZM172.438 36.0533H157.241V20.9333H161.872C161.782 21.4293 161.735 21.932 161.731 22.436C161.734 24.8834 162.711 27.2298 164.45 28.9603C166.188 30.6908 168.545 31.6641 171.003 31.6666C171.484 31.6641 171.963 31.6235 172.438 31.5453V36.0533Z" fill="#737680"/>
</g>
<g clip-path="url(#clip2_5_58)">
<path d="M338.87 21.07H341.87V33.2H338.87V21.07ZM343.06 28.62C343.06 25.62 344.9 23.83 347.74 23.83C350.58 23.83 352.42 25.62 352.42 28.62C352.42 31.62 350.62 33.42 347.74 33.42C344.86 33.42 343.06 31.67 343.06 28.62ZM349.41 28.62C349.41 26.97 348.76 26 347.74 26C346.72 26 346.08 27 346.08 28.62C346.08 30.24 346.71 31.22 347.74 31.22C348.77 31.22 349.41 30.3 349.41 28.63V28.62ZM353.55 33.79H356.43C356.567 34.0945 356.799 34.3466 357.091 34.5088C357.383 34.6709 357.719 34.7345 358.05 34.69C359.19 34.69 359.79 34.07 359.79 33.17V31.49H359.73C359.491 32.0049 359.103 32.4363 358.616 32.7287C358.13 33.021 357.567 33.1608 357 33.13C354.81 33.13 353.36 31.46 353.36 28.59C353.36 25.72 354.74 23.91 357.04 23.91C357.625 23.8871 358.202 24.0434 358.695 24.3579C359.189 24.6725 359.574 25.1303 359.8 25.67V24H362.8V33.1C362.8 35.29 360.87 36.65 358.02 36.65C355.37 36.65 353.72 35.46 353.55 33.8V33.79ZM359.8 28.61C359.8 27.15 359.13 26.23 358.07 26.23C357.01 26.23 356.36 27.14 356.36 28.61C356.36 30.08 357 30.91 358.07 30.91C359.14 30.91 359.8 30.1 359.8 28.62V28.61ZM363.93 28.61C363.93 25.61 365.77 23.82 368.61 23.82C371.45 23.82 373.3 25.61 373.3 28.61C373.3 31.61 371.5 33.41 368.61 33.41C365.72 33.41 363.93 31.67 363.93 28.62V28.61ZM370.28 28.61C370.28 26.96 369.63 25.99 368.61 25.99C367.59 25.99 367 27 367 28.63C367 30.26 367.63 31.23 368.65 31.23C369.67 31.23 370.28 30.3 370.28 28.63V28.61ZM374.44 21.82C374.432 21.5171 374.514 21.2187 374.676 20.9626C374.838 20.7065 375.073 20.5043 375.35 20.3815C375.627 20.2588 375.934 20.221 376.232 20.2731C376.531 20.3251 376.807 20.4646 377.026 20.6739C377.245 20.8832 377.397 21.1528 377.463 21.4486C377.529 21.7444 377.505 22.053 377.395 22.3354C377.285 22.6177 377.094 22.8611 376.846 23.0346C376.597 23.2081 376.303 23.304 376 23.31C375.799 23.3238 375.598 23.2959 375.408 23.2281C375.219 23.1603 375.045 23.0541 374.899 22.916C374.752 22.778 374.636 22.6111 374.557 22.4259C374.478 22.2408 374.438 22.0413 374.44 21.84V21.82ZM374.44 24.02H377.44V33.2H374.44V24.02ZM388.33 28.61C388.33 31.61 387 33.32 384.72 33.32C384.135 33.3575 383.553 33.2146 383.052 32.9106C382.552 32.6065 382.156 32.156 381.92 31.62H381.86V36.14H378.86V24H381.86V25.64H381.92C382.145 25.0951 382.533 24.6329 383.031 24.3162C383.528 23.9995 384.111 23.8437 384.7 23.87C387 23.91 388.37 25.63 388.37 28.63L388.33 28.61ZM385.33 28.61C385.33 27.15 384.66 26.22 383.61 26.22C382.56 26.22 381.89 27.16 381.88 28.61C381.87 30.06 382.56 30.99 383.61 30.99C384.66 30.99 385.33 30.08 385.33 28.63V28.61ZM393.48 23.81C395.97 23.81 397.48 24.99 397.55 26.88H394.82C394.82 26.23 394.28 25.82 393.45 25.82C392.62 25.82 392.25 26.14 392.25 26.61C392.25 27.08 392.58 27.23 393.25 27.37L395.17 27.76C397 28.15 397.78 28.89 397.78 30.28C397.78 32.18 396.05 33.4 393.5 33.4C390.95 33.4 389.28 32.18 389.15 30.31H392.04C392.13 30.99 392.67 31.39 393.55 31.39C394.43 31.39 394.83 31.1 394.83 30.62C394.83 30.14 394.55 30.04 393.83 29.89L392.1 29.52C390.31 29.15 389.37 28.2 389.37 26.8C389.39 25 391 23.83 393.48 23.83V23.81ZM407.79 33.18H404.9V31.47H404.84C404.681 32.0441 404.331 32.5466 403.847 32.8941C403.363 33.2415 402.775 33.413 402.18 33.38C401.724 33.4059 401.268 33.3337 400.843 33.1682C400.417 33.0027 400.032 32.7479 399.714 32.4208C399.395 32.0938 399.15 31.7021 398.996 31.2724C398.842 30.8427 398.782 30.3849 398.82 29.93V24H401.82V29.24C401.82 30.33 402.38 30.91 403.31 30.91C403.528 30.9104 403.744 30.8643 403.942 30.7746C404.141 30.6849 404.319 30.5537 404.463 30.3899C404.606 30.226 404.714 30.0333 404.777 29.8247C404.84 29.616 404.859 29.3962 404.83 29.18V24H407.83L407.79 33.18ZM409.24 24H412.14V25.77H412.2C412.359 25.2035 412.702 24.7057 413.174 24.3547C413.646 24.0037 414.222 23.8191 414.81 23.83C415.409 23.7821 416.003 23.9612 416.476 24.3318C416.948 24.7024 417.264 25.2372 417.36 25.83H417.42C417.601 25.2309 417.977 24.7093 418.488 24.3472C418.998 23.9851 419.615 23.8031 420.24 23.83C420.648 23.8163 421.054 23.8886 421.432 24.0422C421.811 24.1957 422.152 24.4272 422.435 24.7214C422.718 25.0157 422.936 25.3662 423.075 25.7501C423.213 26.134 423.27 26.5429 423.24 26.95V33.2H420.24V27.75C420.24 26.75 419.79 26.29 418.95 26.29C418.763 26.2884 418.577 26.327 418.406 26.4032C418.235 26.4794 418.082 26.5914 417.958 26.7317C417.834 26.872 417.741 27.0372 417.686 27.2163C417.631 27.3955 417.616 27.5843 417.64 27.77V33.2H414.79V27.71C414.79 26.79 414.34 26.29 413.52 26.29C413.331 26.2901 413.143 26.3303 412.971 26.408C412.798 26.4858 412.643 26.5993 412.518 26.741C412.392 26.8827 412.298 27.0495 412.241 27.2304C412.185 27.4112 412.167 27.6019 412.19 27.79V33.2H409.19L409.24 24Z" fill="#737680"/>
<path d="M330.48 21.62C329.971 20.4564 329.297 19.372 328.48 18.4C327.271 16.9204 325.763 15.7134 324.055 14.8586C322.346 14.0038 320.476 13.5206 318.567 13.4407C316.658 13.3608 314.754 13.686 312.98 14.395C311.206 15.104 309.602 16.1807 308.274 17.5541C306.946 18.9276 305.924 20.5668 305.275 22.3637C304.626 24.1606 304.365 26.0746 304.51 27.9796C304.654 29.8847 305.2 31.7376 306.112 33.4164C307.023 35.0953 308.28 36.562 309.8 37.72C310.775 38.4779 311.852 39.094 313 39.55C314.609 40.2094 316.331 40.549 318.07 40.55C321.659 40.5421 325.099 39.1113 327.635 36.5713C330.172 34.0314 331.597 30.5894 331.6 27C331.603 25.1485 331.221 23.3166 330.48 21.62ZM318.06 16.19C319.622 16.1898 321.164 16.5311 322.58 17.19C322.235 17.3392 321.872 17.4434 321.5 17.5C320.277 17.6771 319.143 18.2451 318.269 19.1192C317.395 19.9933 316.827 21.1266 316.65 22.35C316.572 23.0361 316.26 23.6744 315.767 24.1572C315.273 24.64 314.628 24.9377 313.94 25C312.717 25.1771 311.583 25.7451 310.709 26.6192C309.835 27.4933 309.267 28.6266 309.09 29.85C309.03 30.5024 308.752 31.1155 308.3 31.59C307.521 29.9433 307.171 28.1261 307.282 26.3077C307.394 24.4893 307.964 22.7287 308.939 21.1898C309.914 19.6508 311.263 18.3835 312.859 17.5059C314.455 16.6282 316.248 16.1686 318.07 16.17L318.06 16.19ZM309.79 34C309.91 33.89 310.03 33.79 310.15 33.67C311.04 32.8075 311.611 31.6689 311.77 30.44C311.835 29.7493 312.143 29.1041 312.64 28.62C313.118 28.1222 313.762 27.8163 314.45 27.76C315.673 27.5829 316.807 27.0149 317.681 26.1408C318.555 25.2667 319.123 24.1334 319.3 22.91C319.343 22.1875 319.653 21.5068 320.17 21C320.66 20.5119 321.31 20.2171 322 20.17C323.124 20.0154 324.172 19.5157 325 18.74C325.943 19.5221 326.741 20.4629 327.36 21.52C327.322 21.5714 327.278 21.6183 327.23 21.66C326.753 22.1622 326.11 22.4748 325.42 22.54C324.195 22.714 323.06 23.281 322.186 24.1557C321.311 25.0303 320.744 26.1654 320.57 27.39C320.499 28.0784 320.193 28.7213 319.703 29.2098C319.213 29.6982 318.569 30.0021 317.88 30.07C316.653 30.2458 315.515 30.8126 314.636 31.6863C313.757 32.5601 313.183 33.6941 313 34.92C312.946 35.4087 312.778 35.878 312.51 36.29C311.484 35.6808 310.565 34.9072 309.79 34ZM318.06 37.86C317.045 37.8611 316.035 37.7197 315.06 37.44C315.394 36.818 315.611 36.1402 315.7 35.44C315.77 34.7531 316.075 34.1114 316.563 33.6232C317.051 33.135 317.693 32.8301 318.38 32.76C319.605 32.5849 320.741 32.0178 321.617 31.1435C322.493 30.2693 323.062 29.1349 323.24 27.91C323.31 27.2231 323.615 26.5814 324.103 26.0932C324.591 25.605 325.233 25.3001 325.92 25.23C326.842 25.1101 327.721 24.7668 328.48 24.23C328.901 25.8279 328.951 27.5012 328.626 29.1214C328.3 30.7416 327.608 32.2657 326.602 33.5768C325.596 34.8879 324.303 35.9511 322.822 36.6849C321.342 37.4187 319.713 37.8036 318.06 37.81V37.86Z" fill="#737680"/>
</g>
<g clip-path="url(#clip3_5_58)">
<path d="M474.017 26.0455C473.682 26.386 473.426 26.7969 473.267 27.2488C473.107 27.7009 473.048 28.183 473.094 28.6607L473.078 28.6447C473.125 29.2071 473.05 29.773 472.858 30.303C472.667 30.833 472.363 31.3144 471.969 31.7135C471.574 32.1125 471.099 32.4197 470.575 32.6136C470.051 32.8074 469.492 32.8832 468.936 32.8357L468.952 32.8518C468.287 32.7892 467.62 32.9355 467.04 33.271C466.46 33.6064 465.997 34.1146 465.714 34.7262C465.43 35.3378 465.339 36.023 465.455 36.6885C465.57 37.3539 465.885 37.9672 466.358 38.4447C466.83 38.9222 467.436 39.2407 468.094 39.3567C468.752 39.4728 469.429 39.3807 470.033 39.093C470.637 38.8055 471.139 38.3363 471.47 37.7495C471.801 37.1627 471.945 36.487 471.882 35.8143L471.899 35.8304C471.852 35.268 471.927 34.7021 472.119 34.1721C472.31 33.642 472.614 33.1606 473.008 32.7615C473.403 32.3625 473.878 32.0554 474.402 31.8615C474.926 31.6677 475.485 31.5918 476.041 31.6393L476.024 31.6232C476.567 31.6727 477.114 31.5826 477.613 31.3613C478.113 31.14 478.549 30.7948 478.881 30.3575C479.214 29.9203 479.432 29.4051 479.515 28.8599C479.599 28.3147 479.545 27.757 479.358 27.2385C479.172 26.7199 478.859 26.2574 478.449 25.8938C478.039 25.5301 477.545 25.2772 477.013 25.1581C476.48 25.0392 475.927 25.0581 475.404 25.2133C474.88 25.3684 474.404 25.6547 474.019 26.0455H474.017Z" fill="#737680"/>
<path d="M467.508 30.7465L467.491 30.7304C467.963 30.7785 468.44 30.7198 468.888 30.5586C469.335 30.3973 469.741 30.1376 470.077 29.7981C470.413 29.4585 470.67 29.0476 470.829 28.5952C470.989 28.1428 471.047 27.6602 471 27.1822L471.017 27.1982C470.97 26.6358 471.045 26.0699 471.236 25.5398C471.428 25.0098 471.732 24.5285 472.126 24.1294C472.52 23.7304 472.996 23.4232 473.52 23.2294C474.044 23.0355 474.603 22.9597 475.159 23.0072L475.142 22.9911C475.807 23.0543 476.475 22.9084 477.054 22.5733C477.634 22.2383 478.098 21.7304 478.382 21.1189C478.666 20.5074 478.757 19.8221 478.642 19.1565C478.527 18.4908 478.212 17.8773 477.74 17.3995C477.268 16.9217 476.661 16.6029 476.004 16.4866C475.346 16.3703 474.669 16.4622 474.064 16.7497C473.46 17.0372 472.958 17.5064 472.627 18.0932C472.296 18.68 472.152 19.3558 472.214 20.0286L472.198 20.0116C472.245 20.574 472.171 21.14 471.979 21.6702C471.788 22.2003 471.484 22.6817 471.09 23.0808C470.695 23.4799 470.219 23.7871 469.696 23.9808C469.172 24.1746 468.612 24.2503 468.057 24.2027L468.072 24.2197C467.6 24.1715 467.123 24.2302 466.676 24.3915C466.229 24.5526 465.822 24.8124 465.487 25.152C465.151 25.4915 464.894 25.9024 464.734 26.3548C464.574 26.8073 464.516 27.2898 464.563 27.7679L464.547 27.7518C464.594 28.3141 464.519 28.88 464.328 29.41C464.136 29.9399 463.832 30.4213 463.438 30.8203C463.044 31.2193 462.568 31.5265 462.044 31.7204C461.521 31.9142 460.961 31.9902 460.406 31.9429L460.422 31.959C459.757 31.8957 459.089 32.0416 458.509 32.3767C457.929 32.7118 457.465 33.2197 457.181 33.8312C456.897 34.4427 456.806 35.128 456.921 35.7936C457.036 36.4592 457.351 37.0728 457.823 37.5506C458.296 38.0284 458.902 38.3472 459.56 38.4634C460.217 38.5797 460.895 38.4878 461.499 38.2003C462.103 37.9128 462.605 37.4437 462.936 36.8569C463.267 36.27 463.412 35.5942 463.349 34.9215L463.366 34.9375C463.319 34.3751 463.394 33.8092 463.586 33.2791C463.777 32.7491 464.081 32.2678 464.475 31.8687C464.869 31.4697 465.345 31.1624 465.869 30.9687C466.393 30.7748 466.952 30.699 467.508 30.7465Z" fill="#737680"/>
<path d="M461.594 28.9544C461.929 28.6141 462.185 28.2032 462.344 27.7511C462.503 27.2991 462.562 26.8169 462.516 26.3393L462.533 26.3553C462.486 25.7928 462.561 25.2267 462.753 24.6965C462.944 24.1663 463.248 23.6849 463.643 23.2858C464.037 22.8867 464.513 22.5796 465.037 22.3859C465.561 22.1921 466.121 22.1165 466.676 22.1643L466.66 22.1482C467.324 22.2112 467.992 22.0652 468.572 21.7302C469.151 21.3952 469.615 20.8874 469.899 20.2761C470.183 19.6648 470.273 18.9797 470.158 18.3143C470.043 17.649 469.729 17.0356 469.256 16.558C468.785 16.0804 468.178 15.7617 467.521 15.6454C466.863 15.5292 466.186 15.621 465.582 15.9083C464.978 16.1957 464.476 16.6646 464.145 17.2511C463.814 17.8376 463.67 18.5132 463.732 19.1857L463.716 19.1696C463.763 19.732 463.688 20.2979 463.497 20.828C463.305 21.358 463.002 21.8394 462.607 22.2384C462.213 22.6375 461.737 22.9447 461.213 23.1385C460.689 23.3323 460.13 23.4082 459.574 23.3607L459.59 23.3768C459.047 23.3275 458.501 23.4177 458.001 23.6391C457.502 23.8604 457.066 24.2058 456.733 24.6431C456.401 25.0803 456.183 25.5955 456.1 26.1407C456.017 26.686 456.071 27.2436 456.257 27.762C456.444 28.2805 456.756 28.7429 457.166 29.1065C457.576 29.4702 458.07 29.7231 458.603 29.842C459.135 29.9609 459.689 29.9419 460.212 29.7868C460.735 29.6316 461.211 29.3453 461.596 28.9544H461.594Z" fill="#737680"/>
<path d="M488.927 20.0491H491.547V32.9536H488.927V20.0491Z" fill="#737680"/>
<path d="M493.031 28.5348C493.028 27.6075 493.296 26.6998 493.803 25.927C494.309 25.1541 495.031 24.5507 495.877 24.1932C496.722 23.8358 497.654 23.7403 498.553 23.919C499.452 24.0976 500.279 24.5423 500.928 25.1968C501.578 25.8512 502.02 26.6859 502.201 27.5952C502.381 28.5045 502.29 29.4474 501.94 30.3045C501.59 31.1616 500.997 31.8945 500.235 32.41C499.473 32.9256 498.578 33.2009 497.661 33.2009C497.053 33.2079 496.449 33.0921 495.886 32.8604C495.322 32.6286 494.81 32.2854 494.379 31.851C493.948 31.4166 493.606 30.8995 493.375 30.3302C493.144 29.7608 493.027 29.1504 493.031 28.5348ZM499.67 28.5348C499.659 28.1351 499.532 27.7475 499.305 27.4204C499.077 27.0935 498.76 26.8415 498.392 26.6962C498.023 26.5509 497.621 26.5186 497.235 26.6034C496.849 26.6882 496.496 26.8862 496.22 27.1729C495.945 27.4595 495.759 27.8221 495.686 28.2151C495.613 28.608 495.656 29.0141 495.809 29.3825C495.963 29.7508 496.221 30.0652 496.55 30.2862C496.88 30.5071 497.266 30.625 497.661 30.625C497.932 30.6323 498.201 30.5828 498.452 30.4795C498.703 30.3763 498.93 30.2217 499.118 30.0254C499.307 29.8289 499.454 29.5951 499.549 29.3386C499.644 29.082 499.685 28.8084 499.67 28.5348Z" fill="#737680"/>
<path d="M512.735 24.1152V32.5081C512.735 35.4777 510.446 36.7331 508.123 36.7331C507.305 36.795 506.486 36.6278 505.756 36.2498C505.026 35.8718 504.412 35.2976 503.983 34.5902L506.219 33.2822C506.399 33.6509 506.687 33.9551 507.043 34.1541C507.399 34.3531 507.806 34.4373 508.211 34.3956C508.469 34.4318 508.732 34.4088 508.981 34.3281C509.229 34.2475 509.457 34.1114 509.646 33.9298C509.836 33.7482 509.983 33.5259 510.076 33.2791C510.169 33.0324 510.206 32.7677 510.184 32.5045V31.6964C509.878 32.0764 509.487 32.3782 509.044 32.5778C508.601 32.7773 508.118 32.869 507.634 32.8456C506.481 32.8088 505.388 32.3197 504.585 31.4816C503.783 30.6437 503.334 29.5227 503.334 28.3558C503.334 27.189 503.783 26.068 504.585 25.23C505.388 24.392 506.481 23.9029 507.634 23.8661C508.118 23.8426 508.601 23.9343 509.044 24.1339C509.487 24.3334 509.878 24.6353 510.184 25.0152V24.1134L512.735 24.1152ZM510.185 28.3572C510.203 27.9298 510.094 27.5069 509.872 27.1429C509.65 26.7788 509.325 26.4903 508.94 26.3145C508.555 26.1386 508.126 26.0835 507.71 26.1562C507.293 26.2289 506.908 26.426 506.603 26.7223C506.298 27.0186 506.087 27.4004 505.999 27.8186C505.91 28.2369 505.947 28.6723 506.105 29.069C506.263 29.4657 506.535 29.8056 506.886 30.0447C507.236 30.2838 507.649 30.4113 508.072 30.4107C508.347 30.4302 508.624 30.3911 508.883 30.2959C509.143 30.2007 509.38 30.0516 509.579 29.8581C509.778 29.6647 509.935 29.4312 510.039 29.1726C510.144 28.9141 510.193 28.6364 510.185 28.3572Z" fill="#737680"/>
<path d="M514.219 28.5348C514.216 27.6075 514.484 26.6998 514.991 25.927C515.497 25.1541 516.219 24.5507 517.065 24.1932C517.91 23.8358 518.842 23.7403 519.741 23.919C520.64 24.0976 521.467 24.5423 522.116 25.1968C522.765 25.8512 523.208 26.6859 523.388 27.5952C523.569 28.5045 523.478 29.4474 523.128 30.3045C522.778 31.1616 522.185 31.8945 521.423 32.41C520.661 32.9256 519.766 33.2009 518.849 33.2009C518.241 33.2079 517.637 33.0921 517.074 32.8604C516.51 32.6286 515.998 32.2854 515.567 31.851C515.135 31.4166 514.794 30.8995 514.563 30.3302C514.332 29.7608 514.215 29.1504 514.219 28.5348ZM520.858 28.5348C520.847 28.1351 520.72 27.7475 520.493 27.4204C520.265 27.0935 519.948 26.8415 519.579 26.6962C519.211 26.5509 518.809 26.5186 518.423 26.6034C518.037 26.6882 517.684 26.8862 517.408 27.1729C517.133 27.4595 516.947 27.8221 516.874 28.2151C516.801 28.608 516.844 29.0141 516.997 29.3825C517.151 29.7508 517.409 30.0652 517.738 30.2862C518.067 30.5071 518.454 30.625 518.849 30.625C519.12 30.6323 519.389 30.5828 519.64 30.4795C519.891 30.3763 520.117 30.2217 520.306 30.0254C520.495 29.8289 520.641 29.5951 520.736 29.3386C520.831 29.082 520.873 28.8084 520.858 28.5348Z" fill="#737680"/>
<path d="M524.701 21.7464C524.701 21.4317 524.793 21.1241 524.966 20.8625C525.139 20.6008 525.384 20.3969 525.672 20.2764C525.959 20.156 526.275 20.1245 526.58 20.1859C526.885 20.2473 527.165 20.3988 527.385 20.6214C527.605 20.8439 527.755 21.1274 527.815 21.436C527.876 21.7446 527.845 22.0646 527.726 22.3553C527.607 22.646 527.405 22.8945 527.147 23.0693C526.888 23.2442 526.584 23.3375 526.273 23.3375C525.858 23.3333 525.46 23.1643 525.166 22.8668C524.872 22.5694 524.705 22.1671 524.701 21.7464ZM524.966 24.1152H527.587V32.9545H524.962L524.966 24.1152Z" fill="#737680"/>
<path d="M538.902 28.5348C538.933 29.119 538.849 29.7035 538.655 30.2547C538.461 30.8058 538.162 31.3128 537.774 31.7464C537.385 32.1801 536.917 32.5318 536.394 32.7814C535.871 33.0311 535.305 33.1736 534.727 33.2009C534.241 33.2278 533.756 33.1448 533.306 32.9583C532.856 32.7718 532.452 32.4862 532.125 32.1223V36.4893H529.504V24.1152H532.125V24.9456C532.453 24.582 532.856 24.2967 533.306 24.1103C533.756 23.9239 534.241 23.8411 534.727 23.8679C535.305 23.8951 535.871 24.0376 536.394 24.2872C536.917 24.5369 537.386 24.8887 537.774 25.3224C538.162 25.7562 538.462 26.2633 538.655 26.8147C538.849 27.366 538.933 27.9506 538.902 28.5348ZM536.282 28.5348C536.272 28.1212 536.141 27.7197 535.906 27.3808C535.672 27.0418 535.344 26.7805 534.963 26.6293C534.582 26.4781 534.166 26.444 533.766 26.5311C533.366 26.6181 533.001 26.8227 532.715 27.1189C532.43 27.4152 532.237 27.7901 532.161 28.1967C532.085 28.6033 532.129 29.0236 532.288 29.4048C532.447 29.7862 532.713 30.1115 533.054 30.3404C533.395 30.5691 533.795 30.6912 534.204 30.6911C534.485 30.7038 534.765 30.6562 535.026 30.5516C535.287 30.447 535.524 30.2876 535.72 30.084C535.916 29.8805 536.068 29.6372 536.165 29.3702C536.261 29.1032 536.301 28.8186 536.282 28.5348Z" fill="#737680"/>
<path d="M546.989 30.3018C546.989 32.3348 545.243 33.2009 543.357 33.2009C542.594 33.2707 541.829 33.1076 541.159 32.7326C540.49 32.3576 539.947 31.7879 539.6 31.0973L541.871 29.7893C541.962 30.1085 542.16 30.3862 542.43 30.576C542.699 30.7658 543.025 30.8562 543.353 30.8321C543.981 30.8321 544.296 30.6375 544.296 30.2848C544.296 29.3116 539.998 29.825 539.998 26.767C539.998 24.8393 541.606 23.8678 543.423 23.8678C544.106 23.846 544.782 24.0099 545.381 24.3425C545.98 24.6751 546.48 25.1643 546.829 25.7589L544.593 26.9786C544.495 26.7471 544.332 26.5498 544.123 26.4115C543.915 26.2732 543.672 26.2 543.423 26.2009C542.968 26.2009 542.689 26.3795 542.689 26.6955C542.692 27.7036 546.989 27.0313 546.989 30.3018Z" fill="#737680"/>
<path d="M556.562 24.1152V32.9545H553.941V32.1232C553.639 32.49 553.255 32.779 552.821 32.9665C552.387 33.154 551.915 33.2346 551.444 33.2018C549.679 33.2018 548.179 31.9295 548.179 29.5411V24.1152H550.8V29.1527C550.778 29.3632 550.802 29.576 550.87 29.7763C550.937 29.9767 551.047 30.1596 551.192 30.3127C551.337 30.4656 551.512 30.5848 551.707 30.662C551.901 30.7393 552.11 30.7727 552.319 30.7598C553.28 30.7598 553.944 30.1946 553.944 28.9393V24.1179L556.562 24.1152Z" fill="#737680"/>
<path d="M571.588 27.5268V32.9536H568.968V27.7562C568.968 26.8723 568.549 26.3071 567.71 26.3071C566.837 26.3071 566.347 26.9259 566.347 27.9687V32.9536H563.727V27.7562C563.727 26.8723 563.308 26.3071 562.469 26.3071C561.596 26.3071 561.107 26.9259 561.107 27.9687V32.9536H558.486V24.1143H561.107V24.9268C561.379 24.5663 561.735 24.2804 562.144 24.0954C562.553 23.9102 563.001 23.8317 563.448 23.8669C563.896 23.8447 564.342 23.9405 564.744 24.1448C565.144 24.3492 565.486 24.6552 565.736 25.033C566.026 24.6378 566.411 24.3235 566.854 24.1195C567.297 23.9156 567.784 23.8287 568.269 23.8669C570.274 23.8678 571.588 25.317 571.588 27.5268Z" fill="#737680"/>
<path d="M573.805 24.0607C574.879 24.0607 575.749 23.1797 575.749 22.0929C575.749 21.006 574.879 20.125 573.805 20.125C572.731 20.125 571.86 21.006 571.86 22.0929C571.86 23.1797 572.731 24.0607 573.805 24.0607Z" fill="#737680"/>
</g>
<g clip-path="url(#clip4_5_58)">
<path d="M646.522 34.39C645.917 34.4222 645.319 34.2531 644.824 33.91C644.617 33.7592 644.45 33.5611 644.339 33.3329C644.227 33.1046 644.174 32.8531 644.183 32.6V23.33C644.178 23.2907 644.182 23.2509 644.195 23.2135C644.208 23.1761 644.23 23.1421 644.259 23.1142C644.287 23.0862 644.321 23.065 644.359 23.0521C644.398 23.0393 644.438 23.0351 644.478 23.04H646.186C646.38 23.04 646.471 23.14 646.471 23.33V31.88C646.471 32.26 646.644 32.45 647 32.45C647.151 32.4561 647.302 32.4393 647.447 32.4C647.651 32.4 647.763 32.46 647.773 32.64L647.925 33.89C647.933 33.9264 647.932 33.964 647.923 34.0002C647.915 34.0363 647.898 34.0702 647.875 34.0996C647.852 34.129 647.823 34.1531 647.789 34.1705C647.756 34.1878 647.719 34.1978 647.681 34.2C647.307 34.3215 646.916 34.3856 646.522 34.39Z" fill="#737680"/>
<path d="M656.132 33.32C655.274 34.0175 654.195 34.399 653.081 34.399C651.968 34.399 650.889 34.0175 650.03 33.32C649.276 32.571 648.853 31.5593 648.853 30.505C648.853 29.4507 649.276 28.439 650.03 27.69C650.891 26.9961 651.969 26.6169 653.081 26.6169C654.194 26.6169 655.272 26.9961 656.132 27.69C656.869 28.4459 657.281 29.4527 657.281 30.5C657.281 31.5473 656.869 32.5541 656.132 33.31V33.32ZM651.637 32C652.036 32.3548 652.554 32.5514 653.092 32.5514C653.629 32.5514 654.147 32.3548 654.546 32C654.906 31.5923 655.105 31.0703 655.105 30.53C655.105 29.9897 654.906 29.4676 654.546 29.06C654.147 28.7051 653.629 28.5086 653.092 28.5086C652.554 28.5086 652.036 28.7051 651.637 29.06C651.277 29.4676 651.078 29.9897 651.078 30.53C651.078 31.0703 651.277 31.5923 651.637 32Z" fill="#737680"/>
<path d="M666.688 26.87C666.881 26.87 666.973 26.97 666.973 27.16V34.33C666.991 34.8139 666.899 35.2957 666.703 35.7402C666.508 36.1848 666.215 36.581 665.844 36.9C665.022 37.5894 663.964 37.9468 662.885 37.9C661.91 37.9337 660.948 37.6719 660.129 37.15C659.779 36.9242 659.48 36.6302 659.251 36.2861C659.022 35.9421 658.867 35.5554 658.797 35.15C658.797 34.95 658.797 34.86 659.071 34.86H660.78C660.852 34.8624 660.922 34.8854 660.982 34.9262C661.042 34.967 661.088 35.0239 661.115 35.09C661.226 35.3937 661.447 35.6465 661.736 35.8C662.087 35.9785 662.479 36.0678 662.875 36.06C663.113 36.0729 663.352 36.0388 663.578 35.9598C663.803 35.8808 664.01 35.7585 664.186 35.6C664.348 35.4342 664.473 35.2379 664.555 35.0231C664.638 34.8083 664.675 34.5793 664.664 34.35V33.72C664.053 34.1624 663.308 34.3912 662.549 34.37C662.018 34.389 661.488 34.3022 660.992 34.1149C660.496 33.9276 660.043 33.6436 659.661 33.28C658.928 32.5341 658.518 31.5374 658.518 30.5C658.518 29.4626 658.928 28.4659 659.661 27.72C660.045 27.3596 660.498 27.0783 660.994 26.8929C661.49 26.7074 662.019 26.6214 662.549 26.64C663.33 26.6197 664.095 26.8632 664.715 27.33V27.17C664.711 27.1317 664.715 27.0928 664.727 27.0562C664.74 27.0196 664.76 26.9863 664.788 26.9585C664.815 26.9307 664.848 26.9093 664.885 26.8957C664.921 26.8821 664.961 26.8768 665 26.88L666.688 26.87ZM662.742 32.59C663.004 32.598 663.265 32.5493 663.506 32.4473C663.746 32.3454 663.961 32.1927 664.136 32C664.474 31.5707 664.657 31.043 664.657 30.5C664.657 29.957 664.474 29.4293 664.136 29C663.962 28.8099 663.748 28.6595 663.509 28.5593C663.27 28.4591 663.012 28.4116 662.753 28.42C662.488 28.4118 662.224 28.4603 661.98 28.5622C661.736 28.6641 661.517 28.8169 661.339 29.01C660.964 29.4207 660.767 29.9588 660.79 30.51C660.771 31.0558 660.964 31.5882 661.329 32C661.507 32.1926 661.726 32.345 661.97 32.4469C662.214 32.5487 662.477 32.5975 662.742 32.59Z" fill="#737680"/>
<path d="M675.749 33.32C674.889 34.0139 673.811 34.3931 672.698 34.3931C671.586 34.3931 670.508 34.0139 669.647 33.32C668.91 32.5624 668.498 31.5539 668.498 30.505C668.498 29.456 668.91 28.4476 669.647 27.69C670.508 26.9979 671.586 26.6198 672.698 26.6198C673.81 26.6198 674.888 26.9979 675.749 27.69C676.486 28.4459 676.898 29.4527 676.898 30.5C676.898 31.5473 676.486 32.5541 675.749 33.31V33.32ZM671.244 32C671.439 32.1824 671.669 32.3249 671.92 32.4193C672.172 32.5137 672.44 32.5581 672.708 32.55C672.976 32.5568 673.242 32.5117 673.491 32.4174C673.741 32.323 673.969 32.1812 674.163 32C674.517 31.5896 674.712 31.0686 674.712 30.53C674.712 29.9914 674.517 29.4704 674.163 29.06C673.969 28.8788 673.741 28.737 673.491 28.6426C673.242 28.5483 672.976 28.5032 672.708 28.51C672.44 28.5018 672.172 28.5463 671.92 28.6407C671.669 28.7351 671.439 28.8776 671.244 29.06C670.889 29.4704 670.695 29.9914 670.695 30.53C670.695 31.0686 670.889 31.5896 671.244 32Z" fill="#737680"/>
<path d="M680.57 25.17C680.301 25.4014 679.956 25.5289 679.598 25.5289C679.241 25.5289 678.896 25.4014 678.627 25.17C678.505 25.0569 678.408 24.9205 678.342 24.7692C678.275 24.6179 678.241 24.4548 678.241 24.29C678.241 24.1252 678.275 23.9622 678.342 23.8108C678.408 23.6595 678.505 23.5231 678.627 23.41C678.899 23.1844 679.243 23.0607 679.598 23.0607C679.954 23.0607 680.298 23.1844 680.57 23.41C680.691 23.5231 680.788 23.6595 680.855 23.8108C680.921 23.9622 680.955 24.1252 680.955 24.29C680.955 24.4548 680.921 24.6179 680.855 24.7692C680.788 24.9205 680.691 25.0569 680.57 25.17ZM680.783 34.39C680.179 34.4192 679.581 34.2504 679.085 33.91C678.881 33.757 678.717 33.5582 678.608 33.3303C678.498 33.1024 678.445 32.852 678.454 32.6V27.16C678.449 27.1208 678.454 27.0809 678.467 27.0435C678.48 27.0061 678.501 26.9722 678.53 26.9442C678.558 26.9162 678.593 26.895 678.631 26.8822C678.669 26.8693 678.709 26.8652 678.749 26.87H680.458C680.651 26.87 680.742 26.97 680.742 27.16V31.88C680.742 32.26 680.915 32.45 681.261 32.45C681.415 32.4555 681.569 32.4386 681.719 32.4C681.922 32.4 682.034 32.46 682.044 32.64L682.197 33.89C682.204 33.9265 682.203 33.964 682.195 34.0002C682.186 34.0363 682.169 34.0702 682.146 34.0996C682.123 34.129 682.094 34.1532 682.061 34.1705C682.027 34.1878 681.99 34.1979 681.953 34.2C681.575 34.3223 681.181 34.3864 680.783 34.39Z" fill="#737680"/>
<path d="M688.481 26.63C689.015 26.6093 689.547 26.6942 690.047 26.8797C690.547 27.0652 691.003 27.3476 691.39 27.71C692.109 28.4689 692.509 29.4677 692.509 30.505C692.509 31.5423 692.109 32.5411 691.39 33.3C691.005 33.6656 690.549 33.9508 690.049 34.1381C689.549 34.3255 689.016 34.4112 688.481 34.39C687.72 34.4067 686.974 34.1784 686.356 33.74V37.35C686.356 37.54 686.254 37.63 686.061 37.63H684.353C684.314 37.6372 684.273 37.6349 684.235 37.6233C684.198 37.6118 684.163 37.5914 684.135 37.5638C684.107 37.5362 684.086 37.5023 684.075 37.4651C684.063 37.4278 684.06 37.3883 684.068 37.35V29.15C684.08 29.0698 684.072 28.988 684.047 28.911C684.021 28.8341 683.977 28.7641 683.918 28.7068C683.86 28.6495 683.789 28.6064 683.711 28.5809C683.633 28.5554 683.549 28.5482 683.468 28.56H683.132C682.908 28.56 682.797 28.48 682.797 28.32V27.14C682.791 27.067 682.812 26.9944 682.854 26.9344C682.897 26.8743 682.959 26.8304 683.03 26.81C683.382 26.6843 683.755 26.6233 684.129 26.63C684.502 26.5975 684.877 26.6753 685.205 26.8535C685.532 27.0317 685.799 27.302 685.969 27.63C686.297 27.3042 686.689 27.0474 687.121 26.8755C687.552 26.7036 688.015 26.62 688.481 26.63ZM686.895 32C687.076 32.1864 687.294 32.3347 687.535 32.436C687.776 32.5373 688.036 32.5895 688.298 32.5895C688.561 32.5895 688.82 32.5373 689.061 32.436C689.303 32.3347 689.52 32.1864 689.702 32C690.084 31.5811 690.284 31.0322 690.261 30.47C690.288 29.9073 690.086 29.3572 689.702 28.94C689.52 28.7537 689.303 28.6054 689.061 28.504C688.82 28.4027 688.561 28.3505 688.298 28.3505C688.036 28.3505 687.776 28.4027 687.535 28.504C687.294 28.6054 687.076 28.7537 686.895 28.94C686.525 29.3646 686.332 29.9113 686.356 30.47C686.335 31.0283 686.527 31.5739 686.895 32Z" fill="#737680"/>
<path d="M697.308 34.39C696.396 34.4269 695.49 34.2122 694.695 33.77C694.376 33.581 694.104 33.3237 693.9 33.0173C693.696 32.7109 693.564 32.3632 693.515 32C693.515 31.8 693.586 31.7 693.81 31.7H695.305C695.376 31.7027 695.445 31.7247 695.504 31.7635C695.564 31.8024 695.611 31.8565 695.641 31.92C695.854 32.46 696.414 32.73 697.308 32.73C697.621 32.744 697.931 32.6822 698.214 32.55C698.311 32.5068 698.394 32.4384 698.455 32.3521C698.516 32.2658 698.552 32.1648 698.559 32.06C698.559 31.8 698.397 31.62 698.071 31.5C697.685 31.3737 697.286 31.2898 696.881 31.25C696.402 31.1966 695.926 31.1131 695.458 31C695.002 30.8986 694.587 30.6652 694.268 30.33C694.08 30.1022 693.941 29.8387 693.861 29.556C693.78 29.2733 693.76 28.9773 693.801 28.6866C693.842 28.3958 693.944 28.1164 694.099 27.8659C694.255 27.6153 694.461 27.3989 694.705 27.23C695.438 26.7709 696.298 26.5472 697.166 26.59C698.006 26.5621 698.838 26.7665 699.566 27.18C699.86 27.3435 700.112 27.5692 700.306 27.8408C700.499 28.1124 700.629 28.423 700.685 28.75C700.685 28.95 700.593 29.05 700.41 29.05H698.905C698.842 29.0537 698.779 29.0385 698.724 29.0064C698.67 28.9743 698.626 28.9267 698.6 28.87C698.499 28.6332 698.31 28.4434 698.071 28.34C697.802 28.2014 697.501 28.1325 697.197 28.14C696.898 28.1241 696.601 28.1826 696.332 28.31C696.237 28.346 696.156 28.409 696.098 28.491C696.04 28.573 696.008 28.6701 696.007 28.77C696.013 28.9068 696.064 29.0379 696.152 29.1441C696.24 29.2502 696.36 29.3259 696.495 29.36C696.885 29.5047 697.291 29.6054 697.705 29.66C698.181 29.7216 698.653 29.8083 699.119 29.92C699.574 30.0215 699.989 30.2548 700.308 30.59C700.479 30.7747 700.612 30.9908 700.697 31.226C700.783 31.4611 700.82 31.7106 700.807 31.96C700.816 32.3057 700.733 32.6477 700.567 32.9527C700.402 33.2576 700.158 33.5151 699.861 33.7C699.101 34.1797 698.211 34.4203 697.308 34.39Z" fill="#737680"/>
<path d="M711.556 33.89C711.562 33.9255 711.56 33.9618 711.552 33.9967C711.543 34.0316 711.527 34.0645 711.505 34.0934C711.484 34.1222 711.456 34.1466 711.425 34.1649C711.393 34.1832 711.359 34.1951 711.322 34.2C710.951 34.3192 710.563 34.3832 710.173 34.39C709.786 34.4294 709.396 34.3699 709.04 34.2175C708.683 34.0651 708.373 33.8249 708.139 33.52C707.421 34.1273 706.492 34.4389 705.546 34.39C705.106 34.4099 704.668 34.3392 704.258 34.1825C703.848 34.0258 703.476 33.7865 703.166 33.48C702.858 33.1589 702.619 32.7799 702.464 32.3658C702.308 31.9516 702.239 31.5109 702.261 31.07V27.16C702.261 26.97 702.353 26.87 702.546 26.87H704.254C704.447 26.87 704.539 26.97 704.539 27.16V30.77C704.52 31.2198 704.677 31.6596 704.976 32C705.126 32.1559 705.308 32.2786 705.509 32.3596C705.711 32.4407 705.928 32.4784 706.146 32.47C706.369 32.4796 706.591 32.4456 706.801 32.3701C707.01 32.2946 707.202 32.179 707.366 32.03C707.521 31.873 707.642 31.6863 707.72 31.4816C707.799 31.277 707.834 31.0586 707.824 30.84V27.16C707.824 26.97 707.915 26.87 708.108 26.87H709.837C710.031 26.87 710.122 26.97 710.122 27.16V31.87C710.122 32.26 710.295 32.45 710.631 32.45C710.788 32.456 710.946 32.4391 711.098 32.4C711.137 32.3894 711.177 32.3875 711.216 32.3944C711.256 32.4014 711.293 32.417 711.325 32.4401C711.358 32.4632 711.384 32.4931 711.402 32.5278C711.422 32.5624 711.432 32.6008 711.434 32.64L711.556 33.89Z" fill="#737680"/>
<path d="M727.715 33.89C727.724 33.9258 727.725 33.9631 727.718 33.9993C727.71 34.0355 727.695 34.0697 727.673 34.0993C727.65 34.1289 727.622 34.1533 727.588 34.1707C727.556 34.1881 727.519 34.1981 727.481 34.2C727.103 34.3209 726.71 34.3849 726.312 34.39C725.707 34.4207 725.11 34.2517 724.614 33.91C724.399 33.7636 724.225 33.5675 724.106 33.339C723.987 33.1104 723.927 32.8566 723.932 32.6V30.25C723.954 29.8016 723.801 29.3619 723.505 29.02C723.363 28.8637 723.186 28.7405 722.99 28.6592C722.792 28.5779 722.58 28.5406 722.366 28.55C722.174 28.5429 721.983 28.5787 721.806 28.655C721.63 28.7312 721.473 28.8457 721.349 28.99C721.081 29.3251 720.943 29.7438 720.963 30.17V33.86C720.963 34.05 720.871 34.15 720.678 34.15H718.959C718.92 34.1549 718.879 34.1507 718.84 34.1379C718.803 34.125 718.768 34.1038 718.74 34.0758C718.711 34.0479 718.69 34.0139 718.677 33.9765C718.663 33.9391 718.659 33.8992 718.664 33.86V30.25C718.687 29.8065 718.545 29.3699 718.268 29.02C718.144 28.873 717.988 28.7547 717.812 28.6735C717.637 28.5922 717.445 28.5501 717.251 28.55C717.043 28.5418 716.837 28.5767 716.644 28.6525C716.451 28.7284 716.277 28.8434 716.132 28.99C715.841 29.3144 715.692 29.7381 715.715 30.17V33.86C715.72 33.8992 715.716 33.9391 715.703 33.9765C715.69 34.0139 715.669 34.0479 715.64 34.0758C715.612 34.1038 715.577 34.125 715.538 34.1379C715.501 34.1507 715.46 34.1549 715.42 34.15H713.763C713.57 34.15 713.478 34.05 713.478 33.86V29.15C713.49 29.0698 713.483 28.988 713.457 28.911C713.431 28.834 713.387 28.7641 713.329 28.7068C713.271 28.6495 713.199 28.6064 713.121 28.5809C713.043 28.5554 712.959 28.5482 712.878 28.56H712.542C712.319 28.56 712.207 28.48 712.207 28.32V27.14C712.202 27.067 712.222 26.9944 712.265 26.9343C712.307 26.8743 712.37 26.8304 712.441 26.81C712.793 26.6843 713.165 26.6232 713.539 26.63C713.898 26.5999 714.259 26.6703 714.579 26.8331C714.9 26.9959 715.166 27.2444 715.349 27.55C715.692 27.2302 716.099 26.9835 716.543 26.8252C716.987 26.6669 717.46 26.6005 717.932 26.63C718.391 26.608 718.847 26.6925 719.266 26.8767C719.684 27.0609 720.054 27.3395 720.342 27.69C720.679 27.3303 721.093 27.0486 721.554 26.8653C722.014 26.682 722.511 26.6016 723.007 26.63C723.45 26.6096 723.894 26.6799 724.309 26.8365C724.723 26.9932 725.101 27.2327 725.417 27.54C725.726 27.8605 725.965 28.2394 726.121 28.6536C726.276 29.0679 726.345 29.509 726.322 29.95V31.88C726.322 32.26 726.495 32.45 726.82 32.45C726.978 32.4572 727.136 32.4404 727.288 32.4C727.499 32.4 727.611 32.48 727.624 32.64L727.715 33.89Z" fill="#737680"/>
<path d="M608.468 25.57C609.218 22.6047 610.956 19.9714 613.404 18.0895C615.852 16.2076 618.87 15.1853 621.978 15.1853C625.085 15.1853 628.104 16.2076 630.552 18.0895C633 19.9714 634.738 22.6047 635.488 25.57H634.268C632.209 25.5402 630.193 26.1452 628.502 27.3C628.404 27.3695 628.302 27.433 628.197 27.49H628.054C627.949 27.433 627.847 27.3695 627.749 27.3C626.043 26.1719 624.034 25.5694 621.978 25.5694C619.922 25.5694 617.913 26.1719 616.207 27.3C616.109 27.3695 616.007 27.433 615.902 27.49H615.759C615.654 27.433 615.552 27.3695 615.454 27.3C613.763 26.1452 611.747 25.5402 609.688 25.57H608.468ZM632.071 31.84C632.698 31.3603 633.474 31.1093 634.268 31.13H635.905V27.92H634.268C632.87 27.9034 631.504 28.3313 630.373 29.14C629.737 29.6013 628.967 29.8502 628.176 29.8502C627.386 29.8502 626.616 29.6013 625.98 29.14C624.82 28.3464 623.441 27.921 622.029 27.921C620.616 27.921 619.237 28.3464 618.078 29.14C617.442 29.6013 616.672 29.8502 615.881 29.8502C615.091 29.8502 614.321 29.6013 613.685 29.14C612.54 28.321 611.154 27.8925 609.739 27.92H608.051V31.13H609.688C610.482 31.1093 611.258 31.3603 611.885 31.84C613.042 32.6342 614.419 33.06 615.83 33.06C617.242 33.06 618.619 32.6342 619.776 31.84C620.403 31.3618 621.179 31.111 621.973 31.13C622.767 31.1076 623.544 31.3588 624.169 31.84C625.329 32.6337 626.708 33.0591 628.12 33.0591C629.533 33.0591 630.912 32.6337 632.071 31.84ZM632.071 37.58C632.698 37.1003 633.474 36.8493 634.268 36.87H635.905V33.66H634.268C632.87 33.6434 631.504 34.0713 630.373 34.88C629.737 35.3413 628.967 35.5902 628.176 35.5902C627.386 35.5902 626.616 35.3413 625.98 34.88C624.82 34.0864 623.441 33.661 622.029 33.661C620.616 33.661 619.237 34.0864 618.078 34.88C617.442 35.3413 616.672 35.5902 615.881 35.5902C615.091 35.5902 614.321 35.3413 613.685 34.88C612.54 34.061 611.154 33.6325 609.739 33.66H608.051V36.87H609.688C610.482 36.8493 611.258 37.1003 611.885 37.58C613.042 38.3742 614.419 38.8 615.83 38.8C617.242 38.8 618.619 38.3742 619.776 37.58C620.403 37.1018 621.179 36.851 621.973 36.87C622.767 36.8476 623.544 37.0988 624.169 37.58C625.329 38.3737 626.708 38.7991 628.12 38.7991C629.533 38.7991 630.912 38.3737 632.071 37.58Z" fill="#737680"/>
</g>
<defs>
<clipPath id="clip0_5_58">
<rect width="120" height="28" fill="white" transform="translate(0 13)"/>
</clipPath>
<clipPath id="clip1_5_58">
<rect width="120" height="28" fill="white" transform="translate(152 13)"/>
</clipPath>
<clipPath id="clip2_5_58">
<rect width="120" height="28" fill="white" transform="translate(304 13)"/>
</clipPath>
<clipPath id="clip3_5_58">
<rect width="120" height="25" fill="white" transform="translate(456 15)"/>
</clipPath>
<clipPath id="clip4_5_58">
<rect width="120" height="24" fill="white" transform="translate(608 15)"/>
</clipPath>
</defs>
</svg>
