<svg width="603" height="48" viewBox="0 0 603 48" fill="none" xmlns="http://www.w3.org/2000/svg">
<path d="M23.1172 16.7734V22.2578H5.30469V16.7734H23.1172ZM7.39062 2.875V37H0.359375V2.875H7.39062ZM28.1328 2.875V37H21.125V2.875H28.1328ZM32.75 24.5781V24.0859C32.75 22.2266 33.0156 20.5156 33.5469 18.9531C34.0781 17.375 34.8516 16.0078 35.8672 14.8516C36.8828 13.6953 38.1328 12.7969 39.6172 12.1562C41.1016 11.5 42.8047 11.1719 44.7266 11.1719C46.6484 11.1719 48.3594 11.5 49.8594 12.1562C51.3594 12.7969 52.6172 13.6953 53.6328 14.8516C54.6641 16.0078 55.4453 17.375 55.9766 18.9531C56.5078 20.5156 56.7734 22.2266 56.7734 24.0859V24.5781C56.7734 26.4219 56.5078 28.1328 55.9766 29.7109C55.4453 31.2734 54.6641 32.6406 53.6328 33.8125C52.6172 34.9688 51.3672 35.8672 49.8828 36.5078C48.3984 37.1484 46.6953 37.4688 44.7734 37.4688C42.8516 37.4688 41.1406 37.1484 39.6406 36.5078C38.1562 35.8672 36.8984 34.9688 35.8672 33.8125C34.8516 32.6406 34.0781 31.2734 33.5469 29.7109C33.0156 28.1328 32.75 26.4219 32.75 24.5781ZM39.5 24.0859V24.5781C39.5 25.6406 39.5938 26.6328 39.7812 27.5547C39.9688 28.4766 40.2656 29.2891 40.6719 29.9922C41.0938 30.6797 41.6406 31.2188 42.3125 31.6094C42.9844 32 43.8047 32.1953 44.7734 32.1953C45.7109 32.1953 46.5156 32 47.1875 31.6094C47.8594 31.2188 48.3984 30.6797 48.8047 29.9922C49.2109 29.2891 49.5078 28.4766 49.6953 27.5547C49.8984 26.6328 50 25.6406 50 24.5781V24.0859C50 23.0547 49.8984 22.0859 49.6953 21.1797C49.5078 20.2578 49.2031 19.4453 48.7812 18.7422C48.375 18.0234 47.8359 17.4609 47.1641 17.0547C46.4922 16.6484 45.6797 16.4453 44.7266 16.4453C43.7734 16.4453 42.9609 16.6484 42.2891 17.0547C41.6328 17.4609 41.0938 18.0234 40.6719 18.7422C40.2656 19.4453 39.9688 20.2578 39.7812 21.1797C39.5938 22.0859 39.5 23.0547 39.5 24.0859ZM75.9219 30.9297V11.6406H82.6719V37H76.3203L75.9219 30.9297ZM76.6719 25.7266L78.6641 25.6797C78.6641 27.3672 78.4688 28.9375 78.0781 30.3906C77.6875 31.8281 77.1016 33.0781 76.3203 34.1406C75.5391 35.1875 74.5547 36.0078 73.3672 36.6016C72.1797 37.1797 70.7812 37.4688 69.1719 37.4688C67.9375 37.4688 66.7969 37.2969 65.75 36.9531C64.7188 36.5938 63.8281 36.0391 63.0781 35.2891C62.3438 34.5234 61.7656 33.5469 61.3438 32.3594C60.9375 31.1562 60.7344 29.7109 60.7344 28.0234V11.6406H67.4844V28.0703C67.4844 28.8203 67.5703 29.4531 67.7422 29.9688C67.9297 30.4844 68.1875 30.9062 68.5156 31.2344C68.8438 31.5625 69.2266 31.7969 69.6641 31.9375C70.1172 32.0781 70.6172 32.1484 71.1641 32.1484C72.5547 32.1484 73.6484 31.8672 74.4453 31.3047C75.2578 30.7422 75.8281 29.9766 76.1562 29.0078C76.5 28.0234 76.6719 26.9297 76.6719 25.7266ZM101.539 29.9922C101.539 29.5078 101.398 29.0703 101.117 28.6797C100.836 28.2891 100.312 27.9297 99.5469 27.6016C98.7969 27.2578 97.7109 26.9453 96.2891 26.6641C95.0078 26.3828 93.8125 26.0312 92.7031 25.6094C91.6094 25.1719 90.6562 24.6484 89.8438 24.0391C89.0469 23.4297 88.4219 22.7109 87.9688 21.8828C87.5156 21.0391 87.2891 20.0781 87.2891 19C87.2891 17.9375 87.5156 16.9375 87.9688 16C88.4375 15.0625 89.1016 14.2344 89.9609 13.5156C90.8359 12.7812 91.8984 12.2109 93.1484 11.8047C94.4141 11.3828 95.8359 11.1719 97.4141 11.1719C99.6172 11.1719 101.508 11.5234 103.086 12.2266C104.68 12.9297 105.898 13.8984 106.742 15.1328C107.602 16.3516 108.031 17.7422 108.031 19.3047H101.281C101.281 18.6484 101.141 18.0625 100.859 17.5469C100.594 17.0156 100.172 16.6016 99.5938 16.3047C99.0312 15.9922 98.2969 15.8359 97.3906 15.8359C96.6406 15.8359 95.9922 15.9688 95.4453 16.2344C94.8984 16.4844 94.4766 16.8281 94.1797 17.2656C93.8984 17.6875 93.7578 18.1562 93.7578 18.6719C93.7578 19.0625 93.8359 19.4141 93.9922 19.7266C94.1641 20.0234 94.4375 20.2969 94.8125 20.5469C95.1875 20.7969 95.6719 21.0312 96.2656 21.25C96.875 21.4531 97.625 21.6406 98.5156 21.8125C100.344 22.1875 101.977 22.6797 103.414 23.2891C104.852 23.8828 105.992 24.6953 106.836 25.7266C107.68 26.7422 108.102 28.0781 108.102 29.7344C108.102 30.8594 107.852 31.8906 107.352 32.8281C106.852 33.7656 106.133 34.5859 105.195 35.2891C104.258 35.9766 103.133 36.5156 101.82 36.9062C100.523 37.2812 99.0625 37.4688 97.4375 37.4688C95.0781 37.4688 93.0781 37.0469 91.4375 36.2031C89.8125 35.3594 88.5781 34.2891 87.7344 32.9922C86.9062 31.6797 86.4922 30.3359 86.4922 28.9609H92.8906C92.9219 29.8828 93.1562 30.625 93.5938 31.1875C94.0469 31.75 94.6172 32.1562 95.3047 32.4062C96.0078 32.6562 96.7656 32.7812 97.5781 32.7812C98.4531 32.7812 99.1797 32.6641 99.7578 32.4297C100.336 32.1797 100.773 31.8516 101.07 31.4453C101.383 31.0234 101.539 30.5391 101.539 29.9922ZM124.156 37.4688C122.188 37.4688 120.422 37.1562 118.859 36.5312C117.297 35.8906 115.969 35.0078 114.875 33.8828C113.797 32.7578 112.969 31.4531 112.391 29.9688C111.812 28.4688 111.523 26.875 111.523 25.1875V24.25C111.523 22.3281 111.797 20.5703 112.344 18.9766C112.891 17.3828 113.672 16 114.688 14.8281C115.719 13.6562 116.969 12.7578 118.438 12.1328C119.906 11.4922 121.562 11.1719 123.406 11.1719C125.203 11.1719 126.797 11.4688 128.188 12.0625C129.578 12.6562 130.742 13.5 131.68 14.5938C132.633 15.6875 133.352 17 133.836 18.5312C134.32 20.0469 134.562 21.7344 134.562 23.5938V26.4062H114.406V21.9062H127.93V21.3906C127.93 20.4531 127.758 19.6172 127.414 18.8828C127.086 18.1328 126.586 17.5391 125.914 17.1016C125.242 16.6641 124.383 16.4453 123.336 16.4453C122.445 16.4453 121.68 16.6406 121.039 17.0312C120.398 17.4219 119.875 17.9688 119.469 18.6719C119.078 19.375 118.781 20.2031 118.578 21.1562C118.391 22.0938 118.297 23.125 118.297 24.25V25.1875C118.297 26.2031 118.438 27.1406 118.719 28C119.016 28.8594 119.43 29.6016 119.961 30.2266C120.508 30.8516 121.164 31.3359 121.93 31.6797C122.711 32.0234 123.594 32.1953 124.578 32.1953C125.797 32.1953 126.93 31.9609 127.977 31.4922C129.039 31.0078 129.953 30.2812 130.719 29.3125L134 32.875C133.469 33.6406 132.742 34.375 131.82 35.0781C130.914 35.7812 129.82 36.3594 128.539 36.8125C127.258 37.25 125.797 37.4688 124.156 37.4688ZM152.117 29.9922C152.117 29.5078 151.977 29.0703 151.695 28.6797C151.414 28.2891 150.891 27.9297 150.125 27.6016C149.375 27.2578 148.289 26.9453 146.867 26.6641C145.586 26.3828 144.391 26.0312 143.281 25.6094C142.188 25.1719 141.234 24.6484 140.422 24.0391C139.625 23.4297 139 22.7109 138.547 21.8828C138.094 21.0391 137.867 20.0781 137.867 19C137.867 17.9375 138.094 16.9375 138.547 16C139.016 15.0625 139.68 14.2344 140.539 13.5156C141.414 12.7812 142.477 12.2109 143.727 11.8047C144.992 11.3828 146.414 11.1719 147.992 11.1719C150.195 11.1719 152.086 11.5234 153.664 12.2266C155.258 12.9297 156.477 13.8984 157.32 15.1328C158.18 16.3516 158.609 17.7422 158.609 19.3047H151.859C151.859 18.6484 151.719 18.0625 151.438 17.5469C151.172 17.0156 150.75 16.6016 150.172 16.3047C149.609 15.9922 148.875 15.8359 147.969 15.8359C147.219 15.8359 146.57 15.9688 146.023 16.2344C145.477 16.4844 145.055 16.8281 144.758 17.2656C144.477 17.6875 144.336 18.1562 144.336 18.6719C144.336 19.0625 144.414 19.4141 144.57 19.7266C144.742 20.0234 145.016 20.2969 145.391 20.5469C145.766 20.7969 146.25 21.0312 146.844 21.25C147.453 21.4531 148.203 21.6406 149.094 21.8125C150.922 22.1875 152.555 22.6797 153.992 23.2891C155.43 23.8828 156.57 24.6953 157.414 25.7266C158.258 26.7422 158.68 28.0781 158.68 29.7344C158.68 30.8594 158.43 31.8906 157.93 32.8281C157.43 33.7656 156.711 34.5859 155.773 35.2891C154.836 35.9766 153.711 36.5156 152.398 36.9062C151.102 37.2812 149.641 37.4688 148.016 37.4688C145.656 37.4688 143.656 37.0469 142.016 36.2031C140.391 35.3594 139.156 34.2891 138.312 32.9922C137.484 31.6797 137.07 30.3359 137.07 28.9609H143.469C143.5 29.8828 143.734 30.625 144.172 31.1875C144.625 31.75 145.195 32.1562 145.883 32.4062C146.586 32.6562 147.344 32.7812 148.156 32.7812C149.031 32.7812 149.758 32.6641 150.336 32.4297C150.914 32.1797 151.352 31.8516 151.648 31.4453C151.961 31.0234 152.117 30.5391 152.117 29.9922ZM182.141 11.6406V37H175.367V11.6406H182.141ZM174.945 5.03125C174.945 4.04688 175.289 3.23437 175.977 2.59375C176.664 1.95313 177.586 1.63281 178.742 1.63281C179.883 1.63281 180.797 1.95313 181.484 2.59375C182.188 3.23437 182.539 4.04688 182.539 5.03125C182.539 6.01562 182.188 6.82813 181.484 7.46875C180.797 8.10938 179.883 8.42969 178.742 8.42969C177.586 8.42969 176.664 8.10938 175.977 7.46875C175.289 6.82813 174.945 6.01562 174.945 5.03125ZM194.328 17.0547V37H187.578V11.6406H193.906L194.328 17.0547ZM193.344 23.4297H191.516C191.516 21.5547 191.758 19.8672 192.242 18.3672C192.727 16.8516 193.406 15.5625 194.281 14.5C195.156 13.4219 196.195 12.6016 197.398 12.0391C198.617 11.4609 199.977 11.1719 201.477 11.1719C202.664 11.1719 203.75 11.3438 204.734 11.6875C205.719 12.0312 206.562 12.5781 207.266 13.3281C207.984 14.0781 208.531 15.0703 208.906 16.3047C209.297 17.5391 209.492 19.0469 209.492 20.8281V37H202.695V20.8047C202.695 19.6797 202.539 18.8047 202.227 18.1797C201.914 17.5547 201.453 17.1172 200.844 16.8672C200.25 16.6016 199.516 16.4688 198.641 16.4688C197.734 16.4688 196.945 16.6484 196.273 17.0078C195.617 17.3672 195.07 17.8672 194.633 18.5078C194.211 19.1328 193.891 19.8672 193.672 20.7109C193.453 21.5547 193.344 22.4609 193.344 23.4297ZM234.102 34.1406L240.828 11.6406H248.07L237.875 40.8203C237.656 41.4609 237.359 42.1484 236.984 42.8828C236.625 43.6172 236.133 44.3125 235.508 44.9688C234.898 45.6406 234.125 46.1875 233.188 46.6094C232.266 47.0312 231.133 47.2422 229.789 47.2422C229.148 47.2422 228.625 47.2031 228.219 47.125C227.812 47.0469 227.328 46.9375 226.766 46.7969V41.8516C226.938 41.8516 227.117 41.8516 227.305 41.8516C227.492 41.8672 227.672 41.875 227.844 41.875C228.734 41.875 229.461 41.7734 230.023 41.5703C230.586 41.3672 231.039 41.0547 231.383 40.6328C231.727 40.2266 232 39.6953 232.203 39.0391L234.102 34.1406ZM231.289 11.6406L236.797 30.0156L237.758 37.1641L233.164 37.6562L224.047 11.6406H231.289ZM249.312 24.5781V24.0859C249.312 22.2266 249.578 20.5156 250.109 18.9531C250.641 17.375 251.414 16.0078 252.43 14.8516C253.445 13.6953 254.695 12.7969 256.18 12.1562C257.664 11.5 259.367 11.1719 261.289 11.1719C263.211 11.1719 264.922 11.5 266.422 12.1562C267.922 12.7969 269.18 13.6953 270.195 14.8516C271.227 16.0078 272.008 17.375 272.539 18.9531C273.07 20.5156 273.336 22.2266 273.336 24.0859V24.5781C273.336 26.4219 273.07 28.1328 272.539 29.7109C272.008 31.2734 271.227 32.6406 270.195 33.8125C269.18 34.9688 267.93 35.8672 266.445 36.5078C264.961 37.1484 263.258 37.4688 261.336 37.4688C259.414 37.4688 257.703 37.1484 256.203 36.5078C254.719 35.8672 253.461 34.9688 252.43 33.8125C251.414 32.6406 250.641 31.2734 250.109 29.7109C249.578 28.1328 249.312 26.4219 249.312 24.5781ZM256.062 24.0859V24.5781C256.062 25.6406 256.156 26.6328 256.344 27.5547C256.531 28.4766 256.828 29.2891 257.234 29.9922C257.656 30.6797 258.203 31.2188 258.875 31.6094C259.547 32 260.367 32.1953 261.336 32.1953C262.273 32.1953 263.078 32 263.75 31.6094C264.422 31.2188 264.961 30.6797 265.367 29.9922C265.773 29.2891 266.07 28.4766 266.258 27.5547C266.461 26.6328 266.562 25.6406 266.562 24.5781V24.0859C266.562 23.0547 266.461 22.0859 266.258 21.1797C266.07 20.2578 265.766 19.4453 265.344 18.7422C264.938 18.0234 264.398 17.4609 263.727 17.0547C263.055 16.6484 262.242 16.4453 261.289 16.4453C260.336 16.4453 259.523 16.6484 258.852 17.0547C258.195 17.4609 257.656 18.0234 257.234 18.7422C256.828 19.4453 256.531 20.2578 256.344 21.1797C256.156 22.0859 256.062 23.0547 256.062 24.0859ZM292.484 30.9297V11.6406H299.234V37H292.883L292.484 30.9297ZM293.234 25.7266L295.227 25.6797C295.227 27.3672 295.031 28.9375 294.641 30.3906C294.25 31.8281 293.664 33.0781 292.883 34.1406C292.102 35.1875 291.117 36.0078 289.93 36.6016C288.742 37.1797 287.344 37.4688 285.734 37.4688C284.5 37.4688 283.359 37.2969 282.312 36.9531C281.281 36.5938 280.391 36.0391 279.641 35.2891C278.906 34.5234 278.328 33.5469 277.906 32.3594C277.5 31.1562 277.297 29.7109 277.297 28.0234V11.6406H284.047V28.0703C284.047 28.8203 284.133 29.4531 284.305 29.9688C284.492 30.4844 284.75 30.9062 285.078 31.2344C285.406 31.5625 285.789 31.7969 286.227 31.9375C286.68 32.0781 287.18 32.1484 287.727 32.1484C289.117 32.1484 290.211 31.8672 291.008 31.3047C291.82 30.7422 292.391 29.9766 292.719 29.0078C293.062 28.0234 293.234 26.9297 293.234 25.7266ZM311.141 17.1719V37H304.391V11.6406H310.742L311.141 17.1719ZM318.781 11.4766L318.664 17.7344C318.336 17.6875 317.938 17.6484 317.469 17.6172C317.016 17.5703 316.602 17.5469 316.227 17.5469C315.273 17.5469 314.445 17.6719 313.742 17.9219C313.055 18.1562 312.477 18.5078 312.008 18.9766C311.555 19.4453 311.211 20.0156 310.977 20.6875C310.758 21.3594 310.633 22.125 310.602 22.9844L309.242 22.5625C309.242 20.9219 309.406 19.4141 309.734 18.0391C310.062 16.6484 310.539 15.4375 311.164 14.4062C311.805 13.375 312.586 12.5781 313.508 12.0156C314.43 11.4531 315.484 11.1719 316.672 11.1719C317.047 11.1719 317.43 11.2031 317.82 11.2656C318.211 11.3125 318.531 11.3828 318.781 11.4766ZM342.523 37H335.727V9.39062C335.727 7.46875 336.102 5.85156 336.852 4.53906C337.617 3.21094 338.688 2.21094 340.062 1.53906C341.453 0.851563 343.102 0.507812 345.008 0.507812C345.633 0.507812 346.234 0.554688 346.812 0.648438C347.391 0.726562 347.953 0.828125 348.5 0.953125L348.43 6.03906C348.133 5.96094 347.82 5.90625 347.492 5.875C347.164 5.84375 346.781 5.82812 346.344 5.82812C345.531 5.82812 344.836 5.96875 344.258 6.25C343.695 6.51562 343.266 6.91406 342.969 7.44531C342.672 7.97656 342.523 8.625 342.523 9.39062V37ZM347.586 11.6406V16.4219H331.953V11.6406H347.586ZM364.812 31.2812V19.9844C364.812 19.1719 364.68 18.4766 364.414 17.8984C364.148 17.3047 363.734 16.8438 363.172 16.5156C362.625 16.1875 361.914 16.0234 361.039 16.0234C360.289 16.0234 359.641 16.1562 359.094 16.4219C358.547 16.6719 358.125 17.0391 357.828 17.5234C357.531 17.9922 357.383 18.5469 357.383 19.1875H350.633C350.633 18.1094 350.883 17.0859 351.383 16.1172C351.883 15.1484 352.609 14.2969 353.562 13.5625C354.516 12.8125 355.648 12.2266 356.961 11.8047C358.289 11.3828 359.773 11.1719 361.414 11.1719C363.383 11.1719 365.133 11.5 366.664 12.1562C368.195 12.8125 369.398 13.7969 370.273 15.1094C371.164 16.4219 371.609 18.0625 371.609 20.0312V30.8828C371.609 32.2734 371.695 33.4141 371.867 34.3047C372.039 35.1797 372.289 35.9453 372.617 36.6016V37H365.797C365.469 36.3125 365.219 35.4531 365.047 34.4219C364.891 33.375 364.812 32.3281 364.812 31.2812ZM365.703 21.5547L365.75 25.375H361.977C361.086 25.375 360.312 25.4766 359.656 25.6797C359 25.8828 358.461 26.1719 358.039 26.5469C357.617 26.9062 357.305 27.3281 357.102 27.8125C356.914 28.2969 356.82 28.8281 356.82 29.4062C356.82 29.9844 356.953 30.5078 357.219 30.9766C357.484 31.4297 357.867 31.7891 358.367 32.0547C358.867 32.3047 359.453 32.4297 360.125 32.4297C361.141 32.4297 362.023 32.2266 362.773 31.8203C363.523 31.4141 364.102 30.9141 364.508 30.3203C364.93 29.7266 365.148 29.1641 365.164 28.6328L366.945 31.4922C366.695 32.1328 366.352 32.7969 365.914 33.4844C365.492 34.1719 364.953 34.8203 364.297 35.4297C363.641 36.0234 362.852 36.5156 361.93 36.9062C361.008 37.2812 359.914 37.4688 358.648 37.4688C357.039 37.4688 355.578 37.1484 354.266 36.5078C352.969 35.8516 351.938 34.9531 351.172 33.8125C350.422 32.6562 350.047 31.3438 350.047 29.875C350.047 28.5469 350.297 27.3672 350.797 26.3359C351.297 25.3047 352.031 24.4375 353 23.7344C353.984 23.0156 355.211 22.4766 356.68 22.1172C358.148 21.7422 359.852 21.5547 361.789 21.5547H365.703ZM385.062 32.0781L390.688 11.6406H397.742L389.188 37H384.922L385.062 32.0781ZM381.195 11.6406L386.844 32.1016L386.961 37H382.672L374.117 11.6406H381.195ZM399.312 24.5781V24.0859C399.312 22.2266 399.578 20.5156 400.109 18.9531C400.641 17.375 401.414 16.0078 402.43 14.8516C403.445 13.6953 404.695 12.7969 406.18 12.1562C407.664 11.5 409.367 11.1719 411.289 11.1719C413.211 11.1719 414.922 11.5 416.422 12.1562C417.922 12.7969 419.18 13.6953 420.195 14.8516C421.227 16.0078 422.008 17.375 422.539 18.9531C423.07 20.5156 423.336 22.2266 423.336 24.0859V24.5781C423.336 26.4219 423.07 28.1328 422.539 29.7109C422.008 31.2734 421.227 32.6406 420.195 33.8125C419.18 34.9688 417.93 35.8672 416.445 36.5078C414.961 37.1484 413.258 37.4688 411.336 37.4688C409.414 37.4688 407.703 37.1484 406.203 36.5078C404.719 35.8672 403.461 34.9688 402.43 33.8125C401.414 32.6406 400.641 31.2734 400.109 29.7109C399.578 28.1328 399.312 26.4219 399.312 24.5781ZM406.062 24.0859V24.5781C406.062 25.6406 406.156 26.6328 406.344 27.5547C406.531 28.4766 406.828 29.2891 407.234 29.9922C407.656 30.6797 408.203 31.2188 408.875 31.6094C409.547 32 410.367 32.1953 411.336 32.1953C412.273 32.1953 413.078 32 413.75 31.6094C414.422 31.2188 414.961 30.6797 415.367 29.9922C415.773 29.2891 416.07 28.4766 416.258 27.5547C416.461 26.6328 416.562 25.6406 416.562 24.5781V24.0859C416.562 23.0547 416.461 22.0859 416.258 21.1797C416.07 20.2578 415.766 19.4453 415.344 18.7422C414.938 18.0234 414.398 17.4609 413.727 17.0547C413.055 16.6484 412.242 16.4453 411.289 16.4453C410.336 16.4453 409.523 16.6484 408.852 17.0547C408.195 17.4609 407.656 18.0234 407.234 18.7422C406.828 19.4453 406.531 20.2578 406.344 21.1797C406.156 22.0859 406.062 23.0547 406.062 24.0859ZM434.234 17.1719V37H427.484V11.6406H433.836L434.234 17.1719ZM441.875 11.4766L441.758 17.7344C441.43 17.6875 441.031 17.6484 440.562 17.6172C440.109 17.5703 439.695 17.5469 439.32 17.5469C438.367 17.5469 437.539 17.6719 436.836 17.9219C436.148 18.1562 435.57 18.5078 435.102 18.9766C434.648 19.4453 434.305 20.0156 434.07 20.6875C433.852 21.3594 433.727 22.125 433.695 22.9844L432.336 22.5625C432.336 20.9219 432.5 19.4141 432.828 18.0391C433.156 16.6484 433.633 15.4375 434.258 14.4062C434.898 13.375 435.68 12.5781 436.602 12.0156C437.523 11.4531 438.578 11.1719 439.766 11.1719C440.141 11.1719 440.523 11.2031 440.914 11.2656C441.305 11.3125 441.625 11.3828 441.875 11.4766ZM452.188 11.6406V37H445.414V11.6406H452.188ZM444.992 5.03125C444.992 4.04688 445.336 3.23437 446.023 2.59375C446.711 1.95313 447.633 1.63281 448.789 1.63281C449.93 1.63281 450.844 1.95313 451.531 2.59375C452.234 3.23437 452.586 4.04688 452.586 5.03125C452.586 6.01562 452.234 6.82813 451.531 7.46875C450.844 8.10938 449.93 8.42969 448.789 8.42969C447.633 8.42969 446.711 8.10938 446.023 7.46875C445.336 6.82813 444.992 6.01562 444.992 5.03125ZM470.188 11.6406V16.4219H455.422V11.6406H470.188ZM459.078 5.38281H465.828V29.3594C465.828 30.0938 465.922 30.6562 466.109 31.0469C466.312 31.4375 466.609 31.7109 467 31.8672C467.391 32.0078 467.883 32.0781 468.477 32.0781C468.898 32.0781 469.273 32.0625 469.602 32.0312C469.945 31.9844 470.234 31.9375 470.469 31.8906L470.492 36.8594C469.914 37.0469 469.289 37.1953 468.617 37.3047C467.945 37.4141 467.203 37.4688 466.391 37.4688C464.906 37.4688 463.609 37.2266 462.5 36.7422C461.406 36.2422 460.562 35.4453 459.969 34.3516C459.375 33.2578 459.078 31.8203 459.078 30.0391V5.38281ZM485.703 37.4688C483.734 37.4688 481.969 37.1562 480.406 36.5312C478.844 35.8906 477.516 35.0078 476.422 33.8828C475.344 32.7578 474.516 31.4531 473.938 29.9688C473.359 28.4688 473.07 26.875 473.07 25.1875V24.25C473.07 22.3281 473.344 20.5703 473.891 18.9766C474.438 17.3828 475.219 16 476.234 14.8281C477.266 13.6562 478.516 12.7578 479.984 12.1328C481.453 11.4922 483.109 11.1719 484.953 11.1719C486.75 11.1719 488.344 11.4688 489.734 12.0625C491.125 12.6562 492.289 13.5 493.227 14.5938C494.18 15.6875 494.898 17 495.383 18.5312C495.867 20.0469 496.109 21.7344 496.109 23.5938V26.4062H475.953V21.9062H489.477V21.3906C489.477 20.4531 489.305 19.6172 488.961 18.8828C488.633 18.1328 488.133 17.5391 487.461 17.1016C486.789 16.6641 485.93 16.4453 484.883 16.4453C483.992 16.4453 483.227 16.6406 482.586 17.0312C481.945 17.4219 481.422 17.9688 481.016 18.6719C480.625 19.375 480.328 20.2031 480.125 21.1562C479.938 22.0938 479.844 23.125 479.844 24.25V25.1875C479.844 26.2031 479.984 27.1406 480.266 28C480.562 28.8594 480.977 29.6016 481.508 30.2266C482.055 30.8516 482.711 31.3359 483.477 31.6797C484.258 32.0234 485.141 32.1953 486.125 32.1953C487.344 32.1953 488.477 31.9609 489.523 31.4922C490.586 31.0078 491.5 30.2812 492.266 29.3125L495.547 32.875C495.016 33.6406 494.289 34.375 493.367 35.0781C492.461 35.7812 491.367 36.3594 490.086 36.8125C488.805 37.25 487.344 37.4688 485.703 37.4688ZM525.594 31.2812V19.9844C525.594 19.1719 525.461 18.4766 525.195 17.8984C524.93 17.3047 524.516 16.8438 523.953 16.5156C523.406 16.1875 522.695 16.0234 521.82 16.0234C521.07 16.0234 520.422 16.1562 519.875 16.4219C519.328 16.6719 518.906 17.0391 518.609 17.5234C518.312 17.9922 518.164 18.5469 518.164 19.1875H511.414C511.414 18.1094 511.664 17.0859 512.164 16.1172C512.664 15.1484 513.391 14.2969 514.344 13.5625C515.297 12.8125 516.43 12.2266 517.742 11.8047C519.07 11.3828 520.555 11.1719 522.195 11.1719C524.164 11.1719 525.914 11.5 527.445 12.1562C528.977 12.8125 530.18 13.7969 531.055 15.1094C531.945 16.4219 532.391 18.0625 532.391 20.0312V30.8828C532.391 32.2734 532.477 33.4141 532.648 34.3047C532.82 35.1797 533.07 35.9453 533.398 36.6016V37H526.578C526.25 36.3125 526 35.4531 525.828 34.4219C525.672 33.375 525.594 32.3281 525.594 31.2812ZM526.484 21.5547L526.531 25.375H522.758C521.867 25.375 521.094 25.4766 520.438 25.6797C519.781 25.8828 519.242 26.1719 518.82 26.5469C518.398 26.9062 518.086 27.3281 517.883 27.8125C517.695 28.2969 517.602 28.8281 517.602 29.4062C517.602 29.9844 517.734 30.5078 518 30.9766C518.266 31.4297 518.648 31.7891 519.148 32.0547C519.648 32.3047 520.234 32.4297 520.906 32.4297C521.922 32.4297 522.805 32.2266 523.555 31.8203C524.305 31.4141 524.883 30.9141 525.289 30.3203C525.711 29.7266 525.93 29.1641 525.945 28.6328L527.727 31.4922C527.477 32.1328 527.133 32.7969 526.695 33.4844C526.273 34.1719 525.734 34.8203 525.078 35.4297C524.422 36.0234 523.633 36.5156 522.711 36.9062C521.789 37.2812 520.695 37.4688 519.43 37.4688C517.82 37.4688 516.359 37.1484 515.047 36.5078C513.75 35.8516 512.719 34.9531 511.953 33.8125C511.203 32.6562 510.828 31.3438 510.828 29.875C510.828 28.5469 511.078 27.3672 511.578 26.3359C512.078 25.3047 512.812 24.4375 513.781 23.7344C514.766 23.0156 515.992 22.4766 517.461 22.1172C518.93 21.7422 520.633 21.5547 522.57 21.5547H526.484ZM544.344 17.1719V37H537.594V11.6406H543.945L544.344 17.1719ZM551.984 11.4766L551.867 17.7344C551.539 17.6875 551.141 17.6484 550.672 17.6172C550.219 17.5703 549.805 17.5469 549.43 17.5469C548.477 17.5469 547.648 17.6719 546.945 17.9219C546.258 18.1562 545.68 18.5078 545.211 18.9766C544.758 19.4453 544.414 20.0156 544.18 20.6875C543.961 21.3594 543.836 22.125 543.805 22.9844L542.445 22.5625C542.445 20.9219 542.609 19.4141 542.938 18.0391C543.266 16.6484 543.742 15.4375 544.367 14.4062C545.008 13.375 545.789 12.5781 546.711 12.0156C547.633 11.4531 548.688 11.1719 549.875 11.1719C550.25 11.1719 550.633 11.2031 551.023 11.2656C551.414 11.3125 551.734 11.3828 551.984 11.4766ZM566.375 37.4688C564.406 37.4688 562.641 37.1562 561.078 36.5312C559.516 35.8906 558.188 35.0078 557.094 33.8828C556.016 32.7578 555.188 31.4531 554.609 29.9688C554.031 28.4688 553.742 26.875 553.742 25.1875V24.25C553.742 22.3281 554.016 20.5703 554.562 18.9766C555.109 17.3828 555.891 16 556.906 14.8281C557.938 13.6562 559.188 12.7578 560.656 12.1328C562.125 11.4922 563.781 11.1719 565.625 11.1719C567.422 11.1719 569.016 11.4688 570.406 12.0625C571.797 12.6562 572.961 13.5 573.898 14.5938C574.852 15.6875 575.57 17 576.055 18.5312C576.539 20.0469 576.781 21.7344 576.781 23.5938V26.4062H556.625V21.9062H570.148V21.3906C570.148 20.4531 569.977 19.6172 569.633 18.8828C569.305 18.1328 568.805 17.5391 568.133 17.1016C567.461 16.6641 566.602 16.4453 565.555 16.4453C564.664 16.4453 563.898 16.6406 563.258 17.0312C562.617 17.4219 562.094 17.9688 561.688 18.6719C561.297 19.375 561 20.2031 560.797 21.1562C560.609 22.0938 560.516 23.125 560.516 24.25V25.1875C560.516 26.2031 560.656 27.1406 560.938 28C561.234 28.8594 561.648 29.6016 562.18 30.2266C562.727 30.8516 563.383 31.3359 564.148 31.6797C564.93 32.0234 565.812 32.1953 566.797 32.1953C568.016 32.1953 569.148 31.9609 570.195 31.4922C571.258 31.0078 572.172 30.2812 572.938 29.3125L576.219 32.875C575.688 33.6406 574.961 34.375 574.039 35.0781C573.133 35.7812 572.039 36.3594 570.758 36.8125C569.477 37.25 568.016 37.4688 566.375 37.4688ZM594.312 31.2812V19.9844C594.312 19.1719 594.18 18.4766 593.914 17.8984C593.648 17.3047 593.234 16.8438 592.672 16.5156C592.125 16.1875 591.414 16.0234 590.539 16.0234C589.789 16.0234 589.141 16.1562 588.594 16.4219C588.047 16.6719 587.625 17.0391 587.328 17.5234C587.031 17.9922 586.883 18.5469 586.883 19.1875H580.133C580.133 18.1094 580.383 17.0859 580.883 16.1172C581.383 15.1484 582.109 14.2969 583.062 13.5625C584.016 12.8125 585.148 12.2266 586.461 11.8047C587.789 11.3828 589.273 11.1719 590.914 11.1719C592.883 11.1719 594.633 11.5 596.164 12.1562C597.695 12.8125 598.898 13.7969 599.773 15.1094C600.664 16.4219 601.109 18.0625 601.109 20.0312V30.8828C601.109 32.2734 601.195 33.4141 601.367 34.3047C601.539 35.1797 601.789 35.9453 602.117 36.6016V37H595.297C594.969 36.3125 594.719 35.4531 594.547 34.4219C594.391 33.375 594.312 32.3281 594.312 31.2812ZM595.203 21.5547L595.25 25.375H591.477C590.586 25.375 589.812 25.4766 589.156 25.6797C588.5 25.8828 587.961 26.1719 587.539 26.5469C587.117 26.9062 586.805 27.3281 586.602 27.8125C586.414 28.2969 586.32 28.8281 586.32 29.4062C586.32 29.9844 586.453 30.5078 586.719 30.9766C586.984 31.4297 587.367 31.7891 587.867 32.0547C588.367 32.3047 588.953 32.4297 589.625 32.4297C590.641 32.4297 591.523 32.2266 592.273 31.8203C593.023 31.4141 593.602 30.9141 594.008 30.3203C594.43 29.7266 594.648 29.1641 594.664 28.6328L596.445 31.4922C596.195 32.1328 595.852 32.7969 595.414 33.4844C594.992 34.1719 594.453 34.8203 593.797 35.4297C593.141 36.0234 592.352 36.5156 591.43 36.9062C590.508 37.2812 589.414 37.4688 588.148 37.4688C586.539 37.4688 585.078 37.1484 583.766 36.5078C582.469 35.8516 581.438 34.9531 580.672 33.8125C579.922 32.6562 579.547 31.3438 579.547 29.875C579.547 28.5469 579.797 27.3672 580.297 26.3359C580.797 25.3047 581.531 24.4375 582.5 23.7344C583.484 23.0156 584.711 22.4766 586.18 22.1172C587.648 21.7422 589.352 21.5547 591.289 21.5547H595.203Z" fill="#2A2C1F"/>
</svg>
