<svg width="358" height="25" viewBox="0 0 358 25" fill="none" xmlns="http://www.w3.org/2000/svg">
<path d="M36.3984 15.8125V17H28.9531V15.9609L32.6797 11.8125C33.138 11.3021 33.4922 10.8698 33.7422 10.5156C33.9974 10.1562 34.1745 9.83594 34.2734 9.55469C34.3776 9.26823 34.4297 8.97656 34.4297 8.67969C34.4297 8.30469 34.3516 7.96615 34.1953 7.66406C34.0443 7.35677 33.8203 7.11198 33.5234 6.92969C33.2266 6.7474 32.8672 6.65625 32.4453 6.65625C31.9401 6.65625 31.5182 6.75521 31.1797 6.95312C30.8464 7.14583 30.5964 7.41667 30.4297 7.76562C30.263 8.11458 30.1797 8.51562 30.1797 8.96875H28.7344C28.7344 8.32812 28.875 7.74219 29.1562 7.21094C29.4375 6.67969 29.8542 6.25781 30.4062 5.94531C30.9583 5.6276 31.638 5.46875 32.4453 5.46875C33.1641 5.46875 33.7786 5.59635 34.2891 5.85156C34.7995 6.10156 35.1901 6.45573 35.4609 6.91406C35.737 7.36719 35.875 7.89844 35.875 8.50781C35.875 8.84115 35.8177 9.17969 35.7031 9.52344C35.5938 9.86198 35.4401 10.2005 35.2422 10.5391C35.0495 10.8776 34.8229 11.2109 34.5625 11.5391C34.3073 11.8672 34.0339 12.1901 33.7422 12.5078L30.6953 15.8125H36.3984Z" fill="#65665C"/>
<path d="M15.3438 12.6562H16.6562V16.6562C16.6562 17.0104 16.5208 17.3229 16.25 17.5938C16 17.8646 15.6979 18 15.3438 18C15.3438 18.1875 15.2708 18.3438 15.125 18.4688C15 18.5938 14.8438 18.6562 14.6562 18.6562H5.34375C5.15625 18.6562 4.98958 18.5938 4.84375 18.4688C4.71875 18.3438 4.65625 18.1875 4.65625 18C4.30208 18 3.98958 17.8646 3.71875 17.5938C3.46875 17.3229 3.34375 17.0104 3.34375 16.6562V12.6562H5.34375V12.1562C5.34375 11.7604 5.48958 11.4167 5.78125 11.125C6.09375 10.8125 6.44792 10.6562 6.84375 10.6562C7.26042 10.6562 7.63542 10.8229 7.96875 11.1562L8.875 12.1875C9 12.3333 9.1875 12.4896 9.4375 12.6562H14V7.21875C14 7.07292 13.9479 6.94792 13.8438 6.84375C13.7396 6.71875 13.6042 6.65625 13.4375 6.65625C13.2917 6.65625 13.1667 6.70833 13.0625 6.8125L12.2188 7.65625C12.2604 7.82292 12.2812 7.9375 12.2812 8C12.2812 8.22917 12.2083 8.46875 12.0625 8.71875L10.2188 6.875C10.4688 6.72917 10.7083 6.65625 10.9375 6.65625C11.0417 6.65625 11.1562 6.67708 11.2812 6.71875L12.125 5.875C12.4792 5.52083 12.9167 5.34375 13.4375 5.34375C13.9583 5.34375 14.4062 5.53125 14.7812 5.90625C15.1562 6.26042 15.3438 6.69792 15.3438 7.21875V12.6562ZM5.71875 9.625C5.46875 9.35417 5.34375 9.03125 5.34375 8.65625C5.34375 8.28125 5.46875 7.96875 5.71875 7.71875C5.96875 7.46875 6.28125 7.34375 6.65625 7.34375C7.03125 7.34375 7.34375 7.46875 7.59375 7.71875C7.86458 7.96875 8 8.28125 8 8.65625C8 9.03125 7.86458 9.35417 7.59375 9.625C7.34375 9.875 7.03125 10 6.65625 10C6.28125 10 5.96875 9.875 5.71875 9.625Z" fill="#65665C"/>
<path d="M98.3984 15.8125V17H90.9531V15.9609L94.6797 11.8125C95.138 11.3021 95.4922 10.8698 95.7422 10.5156C95.9974 10.1562 96.1745 9.83594 96.2734 9.55469C96.3776 9.26823 96.4297 8.97656 96.4297 8.67969C96.4297 8.30469 96.3516 7.96615 96.1953 7.66406C96.0443 7.35677 95.8203 7.11198 95.5234 6.92969C95.2266 6.7474 94.8672 6.65625 94.4453 6.65625C93.9401 6.65625 93.5182 6.75521 93.1797 6.95312C92.8464 7.14583 92.5964 7.41667 92.4297 7.76562C92.263 8.11458 92.1797 8.51562 92.1797 8.96875H90.7344C90.7344 8.32812 90.875 7.74219 91.1562 7.21094C91.4375 6.67969 91.8542 6.25781 92.4062 5.94531C92.9583 5.6276 93.638 5.46875 94.4453 5.46875C95.1641 5.46875 95.7786 5.59635 96.2891 5.85156C96.7995 6.10156 97.1901 6.45573 97.4609 6.91406C97.737 7.36719 97.875 7.89844 97.875 8.50781C97.875 8.84115 97.8177 9.17969 97.7031 9.52344C97.5938 9.86198 97.4401 10.2005 97.2422 10.5391C97.0495 10.8776 96.8229 11.2109 96.5625 11.5391C96.3073 11.8672 96.0339 12.1901 95.7422 12.5078L92.6953 15.8125H98.3984Z" fill="#65665C"/>
<path d="M78 11.1875V9.34375C78 8.96875 77.9062 8.63542 77.7188 8.34375C77.5521 8.03125 77.3125 7.79167 77 7.625C76.7083 7.4375 76.375 7.34375 76 7.34375H73.3438C73.0729 7.34375 72.8229 7.39583 72.5938 7.5C72.3646 7.58333 72.1667 7.69792 72 7.84375C71.8333 7.69792 71.6354 7.58333 71.4062 7.5C71.1771 7.39583 70.9271 7.34375 70.6562 7.34375H68C67.625 7.34375 67.2812 7.4375 66.9688 7.625C66.6771 7.79167 66.4375 8.03125 66.25 8.34375C66.0833 8.63542 66 8.96875 66 9.34375V11.1875C65.7917 11.375 65.625 11.5938 65.5 11.8438C65.3958 12.0938 65.3438 12.3646 65.3438 12.6562V16.6562H66.6562V15.3438H77.3438V16.6562H78.6562V12.6562C78.6562 12.3646 78.5938 12.0938 78.4688 11.8438C78.3646 11.5938 78.2083 11.375 78 11.1875ZM73.3438 8.65625H76C76.1875 8.65625 76.3438 8.72917 76.4688 8.875C76.5938 9 76.6562 9.15625 76.6562 9.34375V10.6562H72.6562V9.34375C72.6562 9.15625 72.7188 9 72.8438 8.875C72.9896 8.72917 73.1562 8.65625 73.3438 8.65625ZM67.3438 9.34375C67.3438 9.15625 67.4062 9 67.5312 8.875C67.6562 8.72917 67.8125 8.65625 68 8.65625H70.6562C70.8438 8.65625 71 8.72917 71.125 8.875C71.2708 9 71.3438 9.15625 71.3438 9.34375V10.6562H67.3438V9.34375ZM66.6562 14V12.6562C66.6562 12.4896 66.7188 12.3438 66.8438 12.2188C66.9896 12.0729 67.1562 12 67.3438 12H76.6562C76.8438 12 77 12.0729 77.125 12.2188C77.2708 12.3438 77.3438 12.4896 77.3438 12.6562V14H66.6562Z" fill="#65665C"/>
<path d="M160.117 13.9219C160.117 14.6146 159.956 15.2031 159.633 15.6875C159.315 16.1667 158.883 16.5312 158.336 16.7812C157.794 17.0312 157.182 17.1562 156.5 17.1562C155.818 17.1562 155.203 17.0312 154.656 16.7812C154.109 16.5312 153.677 16.1667 153.359 15.6875C153.042 15.2031 152.883 14.6146 152.883 13.9219C152.883 13.4688 152.969 13.0547 153.141 12.6797C153.318 12.2995 153.565 11.9688 153.883 11.6875C154.206 11.4062 154.586 11.1901 155.023 11.0391C155.466 10.8828 155.953 10.8047 156.484 10.8047C157.182 10.8047 157.805 10.9401 158.352 11.2109C158.898 11.4766 159.328 11.8438 159.641 12.3125C159.958 12.7812 160.117 13.3177 160.117 13.9219ZM158.664 13.8906C158.664 13.4688 158.573 13.0964 158.391 12.7734C158.208 12.4453 157.953 12.1901 157.625 12.0078C157.297 11.8255 156.917 11.7344 156.484 11.7344C156.042 11.7344 155.659 11.8255 155.336 12.0078C155.018 12.1901 154.771 12.4453 154.594 12.7734C154.417 13.0964 154.328 13.4688 154.328 13.8906C154.328 14.3281 154.414 14.7031 154.586 15.0156C154.763 15.3229 155.013 15.5599 155.336 15.7266C155.664 15.888 156.052 15.9688 156.5 15.9688C156.948 15.9688 157.333 15.888 157.656 15.7266C157.979 15.5599 158.227 15.3229 158.398 15.0156C158.576 14.7031 158.664 14.3281 158.664 13.8906ZM159.852 8.58594C159.852 9.13802 159.706 9.63542 159.414 10.0781C159.122 10.5208 158.724 10.8698 158.219 11.125C157.714 11.3802 157.141 11.5078 156.5 11.5078C155.849 11.5078 155.268 11.3802 154.758 11.125C154.253 10.8698 153.857 10.5208 153.57 10.0781C153.284 9.63542 153.141 9.13802 153.141 8.58594C153.141 7.92448 153.284 7.36198 153.57 6.89844C153.862 6.4349 154.26 6.08073 154.766 5.83594C155.271 5.59115 155.846 5.46875 156.492 5.46875C157.143 5.46875 157.721 5.59115 158.227 5.83594C158.732 6.08073 159.128 6.4349 159.414 6.89844C159.706 7.36198 159.852 7.92448 159.852 8.58594ZM158.406 8.60938C158.406 8.22917 158.326 7.89323 158.164 7.60156C158.003 7.3099 157.779 7.08073 157.492 6.91406C157.206 6.74219 156.872 6.65625 156.492 6.65625C156.112 6.65625 155.779 6.73698 155.492 6.89844C155.211 7.05469 154.99 7.27865 154.828 7.57031C154.672 7.86198 154.594 8.20833 154.594 8.60938C154.594 9 154.672 9.34115 154.828 9.63281C154.99 9.92448 155.214 10.151 155.5 10.3125C155.786 10.474 156.12 10.5547 156.5 10.5547C156.88 10.5547 157.211 10.474 157.492 10.3125C157.779 10.151 158.003 9.92448 158.164 9.63281C158.326 9.34115 158.406 9 158.406 8.60938ZM169.633 13.1719V14.3594H161.414V13.5078L166.508 5.625H167.688L166.422 7.90625L163.055 13.1719H169.633ZM168.047 5.625V17H166.602V5.625H168.047ZM178.086 10.4062V12.1406C178.086 13.0729 178.003 13.8594 177.836 14.5C177.669 15.1406 177.43 15.6562 177.117 16.0469C176.805 16.4375 176.427 16.7214 175.984 16.8984C175.547 17.0703 175.052 17.1562 174.5 17.1562C174.062 17.1562 173.659 17.1016 173.289 16.9922C172.919 16.8828 172.586 16.7083 172.289 16.4688C171.997 16.224 171.747 15.9062 171.539 15.5156C171.331 15.125 171.172 14.651 171.062 14.0938C170.953 13.5365 170.898 12.8854 170.898 12.1406V10.4062C170.898 9.47396 170.982 8.69271 171.148 8.0625C171.32 7.43229 171.562 6.92708 171.875 6.54688C172.188 6.16146 172.562 5.88542 173 5.71875C173.443 5.55208 173.938 5.46875 174.484 5.46875C174.927 5.46875 175.333 5.52344 175.703 5.63281C176.078 5.73698 176.411 5.90625 176.703 6.14062C176.995 6.36979 177.242 6.67708 177.445 7.0625C177.654 7.44271 177.812 7.90885 177.922 8.46094C178.031 9.01302 178.086 9.66146 178.086 10.4062ZM176.633 12.375V10.1641C176.633 9.65365 176.602 9.20573 176.539 8.82031C176.482 8.42969 176.396 8.09635 176.281 7.82031C176.167 7.54427 176.021 7.32031 175.844 7.14844C175.672 6.97656 175.471 6.85156 175.242 6.77344C175.018 6.6901 174.766 6.64844 174.484 6.64844C174.141 6.64844 173.836 6.71354 173.57 6.84375C173.305 6.96875 173.081 7.16927 172.898 7.44531C172.721 7.72135 172.586 8.08333 172.492 8.53125C172.398 8.97917 172.352 9.52344 172.352 10.1641V12.375C172.352 12.8854 172.38 13.3359 172.438 13.7266C172.5 14.1172 172.591 14.4557 172.711 14.7422C172.831 15.0234 172.977 15.2552 173.148 15.4375C173.32 15.6198 173.518 15.7552 173.742 15.8438C173.971 15.9271 174.224 15.9688 174.5 15.9688C174.854 15.9688 175.164 15.901 175.43 15.7656C175.695 15.6302 175.917 15.4193 176.094 15.1328C176.276 14.8411 176.411 14.4688 176.5 14.0156C176.589 13.5573 176.633 13.0104 176.633 12.375ZM188.992 14.7578C188.992 14.5495 188.945 14.3568 188.852 14.1797C188.763 13.9974 188.578 13.8333 188.297 13.6875C188.021 13.5365 187.604 13.4062 187.047 13.2969C186.578 13.1979 186.154 13.0807 185.773 12.9453C185.398 12.8099 185.078 12.6458 184.812 12.4531C184.552 12.2604 184.352 12.0339 184.211 11.7734C184.07 11.513 184 11.2083 184 10.8594C184 10.526 184.073 10.2109 184.219 9.91406C184.37 9.61719 184.581 9.35417 184.852 9.125C185.128 8.89583 185.458 8.71615 185.844 8.58594C186.229 8.45573 186.659 8.39062 187.133 8.39062C187.81 8.39062 188.388 8.51042 188.867 8.75C189.346 8.98958 189.714 9.3099 189.969 9.71094C190.224 10.1068 190.352 10.5469 190.352 11.0312H188.906C188.906 10.7969 188.836 10.5703 188.695 10.3516C188.56 10.1276 188.359 9.94271 188.094 9.79688C187.833 9.65104 187.513 9.57812 187.133 9.57812C186.732 9.57812 186.406 9.64062 186.156 9.76562C185.911 9.88542 185.732 10.0391 185.617 10.2266C185.508 10.4141 185.453 10.612 185.453 10.8203C185.453 10.9766 185.479 11.1172 185.531 11.2422C185.589 11.362 185.688 11.474 185.828 11.5781C185.969 11.6771 186.167 11.7708 186.422 11.8594C186.677 11.9479 187.003 12.0365 187.398 12.125C188.091 12.2812 188.661 12.4688 189.109 12.6875C189.557 12.9062 189.891 13.1745 190.109 13.4922C190.328 13.8099 190.438 14.1953 190.438 14.6484C190.438 15.0182 190.359 15.3568 190.203 15.6641C190.052 15.9714 189.831 16.237 189.539 16.4609C189.253 16.6797 188.909 16.8516 188.508 16.9766C188.112 17.0964 187.667 17.1562 187.172 17.1562C186.427 17.1562 185.797 17.0234 185.281 16.7578C184.766 16.4922 184.375 16.1484 184.109 15.7266C183.844 15.3047 183.711 14.8594 183.711 14.3906H185.164C185.185 14.7865 185.299 15.1016 185.508 15.3359C185.716 15.5651 185.971 15.7292 186.273 15.8281C186.576 15.9219 186.875 15.9688 187.172 15.9688C187.568 15.9688 187.898 15.9167 188.164 15.8125C188.435 15.7083 188.641 15.5651 188.781 15.3828C188.922 15.2005 188.992 14.9922 188.992 14.7578ZM197.656 20.25V10.1719L197.781 8.54688H199.109V20.25H197.656ZM191.977 12.8672V12.7031C191.977 12.0573 192.052 11.4714 192.203 10.9453C192.354 10.4141 192.576 9.95833 192.867 9.57812C193.159 9.19792 193.51 8.90625 193.922 8.70312C194.339 8.49479 194.812 8.39062 195.344 8.39062C195.875 8.39062 196.341 8.48438 196.742 8.67188C197.148 8.85417 197.492 9.1224 197.773 9.47656C198.06 9.82552 198.286 10.2474 198.453 10.7422C198.62 11.237 198.734 11.7969 198.797 12.4219V13.1406C198.74 13.7604 198.628 14.3177 198.461 14.8125C198.294 15.3073 198.068 15.7292 197.781 16.0781C197.5 16.4271 197.154 16.6953 196.742 16.8828C196.336 17.0651 195.865 17.1562 195.328 17.1562C194.807 17.1562 194.339 17.0495 193.922 16.8359C193.51 16.6224 193.159 16.3229 192.867 15.9375C192.581 15.5521 192.359 15.099 192.203 14.5781C192.052 14.0521 191.977 13.4818 191.977 12.8672ZM193.43 12.7031V12.8672C193.43 13.2891 193.474 13.6875 193.562 14.0625C193.651 14.4323 193.786 14.7604 193.969 15.0469C194.156 15.3333 194.391 15.5599 194.672 15.7266C194.958 15.888 195.297 15.9688 195.688 15.9688C196.167 15.9688 196.565 15.8646 196.883 15.6562C197.206 15.4479 197.464 15.1745 197.656 14.8359C197.849 14.4922 197.997 14.125 198.102 13.7344V11.8516C198.044 11.5651 197.953 11.2865 197.828 11.0156C197.708 10.7448 197.552 10.5026 197.359 10.2891C197.167 10.0703 196.932 9.89844 196.656 9.77344C196.385 9.64323 196.068 9.57812 195.703 9.57812C195.307 9.57812 194.966 9.66146 194.68 9.82812C194.393 9.99479 194.156 10.224 193.969 10.5156C193.786 10.8021 193.651 11.1328 193.562 11.5078C193.474 11.8828 193.43 12.2812 193.43 12.7031ZM203.586 17H202.141V7.65625C202.141 7.04688 202.25 6.53385 202.469 6.11719C202.693 5.69531 203.013 5.3776 203.43 5.16406C203.846 4.94531 204.341 4.83594 204.914 4.83594C205.081 4.83594 205.247 4.84635 205.414 4.86719C205.586 4.88802 205.753 4.91927 205.914 4.96094L205.836 6.14062C205.727 6.11458 205.602 6.09635 205.461 6.08594C205.326 6.07552 205.19 6.07031 205.055 6.07031C204.747 6.07031 204.482 6.13281 204.258 6.25781C204.039 6.3776 203.872 6.55469 203.758 6.78906C203.643 7.02344 203.586 7.3125 203.586 7.65625V17ZM205.383 8.54688V9.65625H200.805V8.54688H205.383ZM210.531 8.54688V9.65625H205.961V8.54688H210.531ZM207.508 6.49219H208.953V14.9062C208.953 15.1927 208.997 15.4089 209.086 15.5547C209.174 15.7005 209.289 15.7969 209.43 15.8438C209.57 15.8906 209.721 15.9141 209.883 15.9141C210.003 15.9141 210.128 15.9036 210.258 15.8828C210.393 15.8568 210.495 15.8359 210.562 15.8203L210.57 17C210.456 17.0365 210.305 17.0703 210.117 17.1016C209.935 17.138 209.714 17.1562 209.453 17.1562C209.099 17.1562 208.773 17.0859 208.477 16.9453C208.18 16.8047 207.943 16.5703 207.766 16.2422C207.594 15.9089 207.508 15.4609 207.508 14.8984V6.49219Z" fill="#65665C"/>
<path d="M130.656 15.3438H134.5L130.656 11.5V15.3438ZM137.781 15.7812L139.344 17.3438H130C129.646 17.3438 129.333 17.2083 129.062 16.9375C128.792 16.6667 128.656 16.3542 128.656 16V6.65625L130.219 8.21875L129.531 8.9375L130 9.40625L130.688 8.6875L132 10L131.281 10.6875L131.75 11.1875L132.469 10.4688L133.781 11.7812L133.062 12.4688L133.531 12.9375L134.25 12.25L135.531 13.5312L134.812 14.25L135.312 14.7188L136 14L137.312 15.3125L136.594 16L137.062 16.4688L137.781 15.7812Z" fill="#65665C"/>
</svg>
